<?xml version="1.0" encoding="UTF-8"?>
<!DOCTYPE svg PUBLIC "-//W3C//DTD SVG 1.1//EN" "http://www.w3.org/Graphics/SVG/1.1/DTD/svg11.dtd">
<svg xmlns="http://www.w3.org/2000/svg" version="1.1" width="474px" height="474px" style="shape-rendering:geometricPrecision; text-rendering:geometricPrecision; image-rendering:optimizeQuality; fill-rule:evenodd; clip-rule:evenodd" xmlns:xlink="http://www.w3.org/1999/xlink">
<g><path style="opacity:1" fill="#000001" d="M -0.5,-0.5 C 157.5,-0.5 315.5,-0.5 473.5,-0.5C 473.5,157.5 473.5,315.5 473.5,473.5C 315.5,473.5 157.5,473.5 -0.5,473.5C -0.5,315.5 -0.5,157.5 -0.5,-0.5 Z"/></g>
<g><path style="opacity:1" fill="#b4e61c" d="M 19.5,3.5 C 164.5,3.33333 309.5,3.5 454.5,4C 461.598,6.09932 466.432,10.5993 469,17.5C 469.667,162.833 469.667,308.167 469,453.5C 466.725,460.775 461.892,465.275 454.5,467C 309.5,467.667 164.5,467.667 19.5,467C 12.4295,465.052 7.92955,460.552 6,453.5C 5.33333,308.167 5.33333,162.833 6,17.5C 8.3519,10.6498 12.8519,5.98316 19.5,3.5 Z"/></g>
<g><path style="opacity:1" fill="#022923" d="M 303.5,228.5 C 304.461,230.265 304.795,232.265 304.5,234.5C 307.425,233.906 309.425,232.239 310.5,229.5C 310.232,231.099 310.566,232.432 311.5,233.5C 311.5,234.167 311.5,234.833 311.5,235.5C 308.946,236.388 306.279,236.721 303.5,236.5C 303.167,236.5 302.833,236.5 302.5,236.5C 286.167,236.5 269.833,236.5 253.5,236.5C 269.833,235.833 286.167,235.167 302.5,234.5C 303.461,232.735 303.795,230.735 303.5,228.5 Z"/></g>
<g><path style="opacity:1" fill="#002809" d="M 445.5,227.5 C 446.245,230.39 446.912,233.39 447.5,236.5C 446.508,236.328 445.842,236.662 445.5,237.5C 444.2,236.892 442.867,236.225 441.5,235.5C 440.167,235.833 438.833,236.167 437.5,236.5C 419.353,235.859 401.353,235.192 383.5,234.5C 404.167,234.5 424.833,234.5 445.5,234.5C 445.5,232.5 445.5,230.5 445.5,228.5C 445.5,228.167 445.5,227.833 445.5,227.5 Z"/></g>
<g><path style="opacity:1" fill="#002508" d="M 241.5,234.5 C 261.833,234.5 282.167,234.5 302.5,234.5C 286.167,235.167 269.833,235.833 253.5,236.5C 249.34,235.607 245.34,235.274 241.5,235.5C 241.5,235.167 241.5,234.833 241.5,234.5 Z"/></g>
<g><path style="opacity:1" fill="#012509" d="M 240.5,228.5 C 240.5,230.5 240.5,232.5 240.5,234.5C 238.844,235.146 237.177,235.813 235.5,236.5C 233.849,234.265 232.516,234.265 231.5,236.5C 211.2,235.535 190.867,235.202 170.5,235.5C 169.833,235.5 169.5,235.167 169.5,234.5C 190.34,234.831 211.007,234.497 231.5,233.5C 232.434,232.432 232.768,231.099 232.5,229.5C 234.176,230.183 234.843,231.517 234.5,233.5C 235.833,233.5 237.167,233.5 238.5,233.5C 238.077,231.219 238.744,229.552 240.5,228.5 Z"/></g>
<g><path style="opacity:1" fill="#002607" d="M 97.5,233.5 C 97.8333,233.5 98.1667,233.5 98.5,233.5C 119.327,234.497 140.327,234.831 161.5,234.5C 161.158,235.338 160.492,235.672 159.5,235.5C 139.024,235.317 118.69,235.65 98.5,236.5C 96.8008,236.66 95.1341,236.494 93.5,236C 95.437,235.878 96.7703,235.045 97.5,233.5 Z"/></g>
<g><path style="opacity:1" fill="#159331" d="M 444.5,228.5 C 444.833,228.5 445.167,228.5 445.5,228.5C 445.5,230.5 445.5,232.5 445.5,234.5C 424.833,234.5 404.167,234.5 383.5,234.5C 382.833,234.5 382.5,234.167 382.5,233.5C 403.167,233.5 423.833,233.5 444.5,233.5C 444.5,231.833 444.5,230.167 444.5,228.5 Z"/></g>
<g><path style="opacity:1" fill="#14942f" d="M 160.5,228.5 C 160.833,228.5 161.167,228.5 161.5,228.5C 161.5,230.5 161.5,232.5 161.5,234.5C 140.327,234.831 119.327,234.497 98.5,233.5C 119.167,233.5 139.833,233.5 160.5,233.5C 160.5,231.833 160.5,230.167 160.5,228.5 Z"/></g>
<g><path style="opacity:1" fill="#1fe827" d="M 444.5,228.5 C 444.5,230.167 444.5,231.833 444.5,233.5C 423.833,233.5 403.167,233.5 382.5,233.5C 382.5,231.833 382.5,230.167 382.5,228.5C 403.167,228.5 423.833,228.5 444.5,228.5 Z"/></g>
<g><path style="opacity:1" fill="#1dd22c" d="M 240.5,228.5 C 261.5,228.5 282.5,228.5 303.5,228.5C 303.795,230.735 303.461,232.735 302.5,234.5C 282.167,234.5 261.833,234.5 241.5,234.5C 241.167,234.5 240.833,234.5 240.5,234.5C 240.5,232.5 240.5,230.5 240.5,228.5 Z"/></g>
<g><path style="opacity:1" fill="#1ed32b" d="M 169.5,228.5 C 190.167,228.5 210.833,228.5 231.5,228.5C 231.5,230.167 231.5,231.833 231.5,233.5C 211.007,234.497 190.34,234.831 169.5,234.5C 169.5,232.5 169.5,230.5 169.5,228.5 Z"/></g>
<g><path style="opacity:1" fill="#1fe828" d="M 160.5,228.5 C 160.5,230.167 160.5,231.833 160.5,233.5C 139.833,233.5 119.167,233.5 98.5,233.5C 98.5,231.833 98.5,230.167 98.5,228.5C 119.167,228.5 139.833,228.5 160.5,228.5 Z"/></g>
<g><path style="opacity:1" fill="#04fc04" d="M 383.5,229.5 C 403.5,229.5 423.5,229.5 443.5,229.5C 443.5,230.5 443.5,231.5 443.5,232.5C 423.5,232.5 403.5,232.5 383.5,232.5C 383.5,231.5 383.5,230.5 383.5,229.5 Z"/></g>
<g><path style="opacity:1" fill="#04fb04" d="M 241.5,229.5 C 261.833,229.5 282.167,229.5 302.5,229.5C 302.5,230.5 302.5,231.5 302.5,232.5C 282.167,232.5 261.833,232.5 241.5,232.5C 241.5,231.5 241.5,230.5 241.5,229.5 Z"/></g>
<g><path style="opacity:1" fill="#03fc04" d="M 100.5,229.5 C 120.167,229.5 139.833,229.5 159.5,229.5C 159.5,230.5 159.5,231.5 159.5,232.5C 139.833,232.5 120.167,232.5 100.5,232.5C 100.5,231.5 100.5,230.5 100.5,229.5 Z"/></g>
<g><path style="opacity:1" fill="#03fc04" d="M 170.5,229.5 C 190.5,229.5 210.5,229.5 230.5,229.5C 230.5,230.5 230.5,231.5 230.5,232.5C 210.5,232.5 190.5,232.5 170.5,232.5C 170.5,231.5 170.5,230.5 170.5,229.5 Z"/></g>
<g><path style="opacity:1" fill="#004302" d="M 381.5,213.5 C 381.833,213.5 382.167,213.5 382.5,213.5C 382.5,215.167 382.5,216.833 382.5,218.5C 403.5,218.5 424.5,218.5 445.5,218.5C 445.5,219.167 445.5,219.833 445.5,220.5C 445.167,220.5 444.833,220.5 444.5,220.5C 423.833,220.5 403.167,220.5 382.5,220.5C 382.5,222.167 382.5,223.833 382.5,225.5C 403.327,226.497 424.327,226.831 445.5,226.5C 445.5,226.833 445.5,227.167 445.5,227.5C 445.5,227.833 445.5,228.167 445.5,228.5C 445.167,228.5 444.833,228.5 444.5,228.5C 423.833,228.5 403.167,228.5 382.5,228.5C 382.5,230.167 382.5,231.833 382.5,233.5C 382.167,233.5 381.833,233.5 381.5,233.5C 381.5,226.833 381.5,220.167 381.5,213.5 Z"/></g>
<g><path style="opacity:1" fill="#ff4302" d="M 241.5,226.5 C 262.167,226.5 282.833,226.5 303.5,226.5C 303.5,227.167 303.5,227.833 303.5,228.5C 282.5,228.5 261.5,228.5 240.5,228.5C 240.833,227.833 241.167,227.167 241.5,226.5 Z"/></g>
<g><path style="opacity:1" fill="#004302" d="M 98.5,212.5 C 98.5,214.5 98.5,216.5 98.5,218.5C 119.5,218.5 140.5,218.5 161.5,218.5C 161.5,219.167 161.5,219.833 161.5,220.5C 161.167,220.5 160.833,220.5 160.5,220.5C 139.833,220.5 119.167,220.5 98.5,220.5C 98.5,222.167 98.5,223.833 98.5,225.5C 119.327,226.497 140.327,226.831 161.5,226.5C 161.5,227.167 161.5,227.833 161.5,228.5C 161.167,228.5 160.833,228.5 160.5,228.5C 139.833,228.5 119.167,228.5 98.5,228.5C 98.5,230.167 98.5,231.833 98.5,233.5C 98.1667,233.5 97.8333,233.5 97.5,233.5C 97.6427,231.738 97.3094,230.071 96.5,228.5C 97.1237,223.035 97.7904,217.702 98.5,212.5 Z"/></g>
<g><path style="opacity:1" fill="#034f0e" d="M 27.5,204.5 C 27.5,205.167 27.5,205.833 27.5,206.5C 27.5,207.5 27.5,208.5 27.5,209.5C 27.5,209.833 27.5,210.167 27.5,210.5C 27.5,211.167 27.5,211.833 27.5,212.5C 27.5,212.833 27.5,213.167 27.5,213.5C 27.5,214.833 27.5,216.167 27.5,217.5C 27.5,217.833 27.5,218.167 27.5,218.5C 27.5,219.167 27.5,219.833 27.5,220.5C 27.5,222.5 27.5,224.5 27.5,226.5C 48.3401,226.831 69.0067,226.497 89.5,225.5C 89.8333,225.5 90.1667,225.5 90.5,225.5C 90.8769,227.258 91.5435,228.925 92.5,230.5C 92.1852,232.483 91.1852,233.816 89.5,234.5C 68.8333,234.5 48.1667,234.5 27.5,234.5C 25.8958,233.713 25.2291,232.38 25.5,230.5C 26.464,223.254 26.7973,215.92 26.5,208.5C 26.2322,206.901 26.5655,205.568 27.5,204.5 Z"/></g>
<g><path style="opacity:1" fill="#1ee729" d="M 27.5,228.5 C 48.5,228.5 69.5,228.5 90.5,228.5C 90.5,230.167 90.5,231.833 90.5,233.5C 69.5,233.5 48.5,233.5 27.5,233.5C 27.5,231.833 27.5,230.167 27.5,228.5 Z"/></g>
<g><path style="opacity:1" fill="#03fc04" d="M 28.5,229.5 C 48.5,229.5 68.5,229.5 88.5,229.5C 88.5,230.5 88.5,231.5 88.5,232.5C 68.5,232.5 48.5,232.5 28.5,232.5C 28.5,231.5 28.5,230.5 28.5,229.5 Z"/></g>
<g><path style="opacity:1" fill="#1ba52c" d="M 444.5,220.5 C 444.833,220.5 445.167,220.5 445.5,220.5C 445.5,222.5 445.5,224.5 445.5,226.5C 424.327,226.831 403.327,226.497 382.5,225.5C 382.833,225.5 383.167,225.5 383.5,225.5C 403.833,225.5 424.167,225.5 444.5,225.5C 444.5,224.167 444.5,222.833 444.5,221.5C 444.5,221.167 444.5,220.833 444.5,220.5 Z"/></g>
<g><path style="opacity:1" fill="#1aa62b" d="M 373.5,220.5 C 373.833,220.5 374.167,220.5 374.5,220.5C 374.5,221.167 374.5,221.833 374.5,222.5C 374.5,223.833 374.5,225.167 374.5,226.5C 353.327,226.831 332.327,226.497 311.5,225.5C 311.833,225.5 312.167,225.5 312.5,225.5C 332.833,225.5 353.167,225.5 373.5,225.5C 373.5,224.167 373.5,222.833 373.5,221.5C 373.5,221.167 373.5,220.833 373.5,220.5 Z"/></g>
<g><path style="opacity:1" fill="#1ca52c" d="M 302.5,220.5 C 302.833,220.5 303.167,220.5 303.5,220.5C 303.5,222.167 303.5,223.833 303.5,225.5C 303.5,225.833 303.5,226.167 303.5,226.5C 282.833,226.5 262.167,226.5 241.5,226.5C 240.833,226.5 240.5,226.167 240.5,225.5C 241.167,225.5 241.833,225.5 242.5,225.5C 262.5,225.5 282.5,225.5 302.5,225.5C 302.5,224.167 302.5,222.833 302.5,221.5C 302.5,221.167 302.5,220.833 302.5,220.5 Z"/></g>
<g><path style="opacity:1" fill="#1aa42a" d="M 160.5,220.5 C 160.833,220.5 161.167,220.5 161.5,220.5C 161.5,222.167 161.5,223.833 161.5,225.5C 161.5,225.833 161.5,226.167 161.5,226.5C 140.327,226.831 119.327,226.497 98.5,225.5C 98.8333,225.5 99.1667,225.5 99.5,225.5C 119.833,225.5 140.167,225.5 160.5,225.5C 160.5,224.167 160.5,222.833 160.5,221.5C 160.5,221.167 160.5,220.833 160.5,220.5 Z"/></g>
<g><path style="opacity:1" fill="#11f515" d="M 444.5,221.5 C 444.5,222.833 444.5,224.167 444.5,225.5C 424.167,225.5 403.833,225.5 383.5,225.5C 383.5,224.167 383.5,222.833 383.5,221.5C 403.833,221.5 424.167,221.5 444.5,221.5 Z"/></g>
<g><path style="opacity:1" fill="#12f417" d="M 373.5,221.5 C 373.5,222.833 373.5,224.167 373.5,225.5C 353.167,225.5 332.833,225.5 312.5,225.5C 312.5,224.167 312.5,222.833 312.5,221.5C 332.833,221.5 353.167,221.5 373.5,221.5 Z"/></g>
<g><path style="opacity:1" fill="#11f516" d="M 302.5,221.5 C 302.5,222.833 302.5,224.167 302.5,225.5C 282.5,225.5 262.5,225.5 242.5,225.5C 241.766,224.292 241.433,222.959 241.5,221.5C 261.833,221.5 282.167,221.5 302.5,221.5 Z"/></g>
<g><path style="opacity:1" fill="#11f515" d="M 160.5,221.5 C 160.5,222.833 160.5,224.167 160.5,225.5C 140.167,225.5 119.833,225.5 99.5,225.5C 99.5,224.167 99.5,222.833 99.5,221.5C 119.833,221.5 140.167,221.5 160.5,221.5 Z"/></g>
<g><path style="opacity:1" fill="#12f516" d="M 89.5,221.5 C 89.5,222.833 89.5,224.167 89.5,225.5C 69.1667,225.5 48.8333,225.5 28.5,225.5C 28.5,224.167 28.5,222.833 28.5,221.5C 48.8333,221.5 69.1667,221.5 89.5,221.5 Z"/></g>
<g><path style="opacity:1" fill="#2dce37" d="M 444.5,220.5 C 444.5,220.833 444.5,221.167 444.5,221.5C 424.167,221.5 403.833,221.5 383.5,221.5C 383.5,222.833 383.5,224.167 383.5,225.5C 383.167,225.5 382.833,225.5 382.5,225.5C 382.5,223.833 382.5,222.167 382.5,220.5C 403.167,220.5 423.833,220.5 444.5,220.5 Z"/></g>
<g><path style="opacity:1" fill="#2dcf36" d="M 311.5,220.5 C 332.167,220.5 352.833,220.5 373.5,220.5C 373.5,220.833 373.5,221.167 373.5,221.5C 353.167,221.5 332.833,221.5 312.5,221.5C 312.5,222.833 312.5,224.167 312.5,225.5C 312.167,225.5 311.833,225.5 311.5,225.5C 311.5,223.833 311.5,222.167 311.5,220.5 Z"/></g>
<g><path style="opacity:1" fill="#2dd036" d="M 302.5,220.5 C 302.5,220.833 302.5,221.167 302.5,221.5C 282.167,221.5 261.833,221.5 241.5,221.5C 241.433,222.959 241.766,224.292 242.5,225.5C 241.833,225.5 241.167,225.5 240.5,225.5C 240.5,223.833 240.5,222.167 240.5,220.5C 261.167,220.5 281.833,220.5 302.5,220.5 Z"/></g>
<g><path style="opacity:1" fill="#27c233" d="M 231.5,221.5 C 211.167,221.5 190.833,221.5 170.5,221.5C 170.5,222.833 170.5,224.167 170.5,225.5C 190.833,225.5 211.167,225.5 231.5,225.5C 211.007,226.497 190.34,226.831 169.5,226.5C 169.5,226.167 169.5,225.833 169.5,225.5C 169.5,223.833 169.5,222.167 169.5,220.5C 190.34,220.169 211.007,220.503 231.5,221.5 Z"/></g>
<g><path style="opacity:1" fill="#2ccf38" d="M 160.5,220.5 C 160.5,220.833 160.5,221.167 160.5,221.5C 140.167,221.5 119.833,221.5 99.5,221.5C 99.5,222.833 99.5,224.167 99.5,225.5C 99.1667,225.5 98.8333,225.5 98.5,225.5C 98.5,223.833 98.5,222.167 98.5,220.5C 119.167,220.5 139.833,220.5 160.5,220.5 Z"/></g>
<g><path style="opacity:1" fill="#041c11" d="M 97.5,197.5 C 97.2155,199.415 97.5489,201.081 98.5,202.5C 98.5,203.167 98.5,203.833 98.5,204.5C 98.5,206.5 98.5,208.5 98.5,210.5C 98.5,211.167 98.5,211.833 98.5,212.5C 97.7904,217.702 97.1237,223.035 96.5,228.5C 97.3094,230.071 97.6427,231.738 97.5,233.5C 96.7703,235.045 95.437,235.878 93.5,236C 95.1341,236.494 96.8008,236.66 98.5,236.5C 98.5,236.833 98.5,237.167 98.5,237.5C 95.8333,237.5 93.1667,237.5 90.5,237.5C 90.7678,239.099 90.4345,240.432 89.5,241.5C 89.5,239.833 89.5,238.167 89.5,236.5C 69.5,236.5 49.5,236.5 29.5,236.5C 49.5,235.833 69.5,235.167 89.5,234.5C 91.1852,233.816 92.1852,232.483 92.5,230.5C 91.5435,228.925 90.8769,227.258 90.5,225.5C 90.5,223.167 90.5,220.833 90.5,218.5C 90.7947,216.265 90.4614,214.265 89.5,212.5C 89.5,211.833 89.5,211.167 89.5,210.5C 90.4614,208.735 90.7947,206.735 90.5,204.5C 69.5,204.5 48.5,204.5 27.5,204.5C 26.5655,205.568 26.2322,206.901 26.5,208.5C 24.6676,205.046 25.6676,202.713 29.5,201.5C 48.6579,202.814 67.8246,202.814 87,201.5C 89.6667,201.167 91.6667,202.167 93,204.5C 92.3768,207.437 92.0435,210.437 92,213.5C 92.1118,216.447 93.6118,217.78 96.5,217.5C 96.176,210.646 96.5093,203.979 97.5,197.5 Z"/></g>
<g><path style="opacity:1" fill="#28c233" d="M 27.5,220.5 C 48.3401,220.169 69.0067,220.503 89.5,221.5C 69.1667,221.5 48.8333,221.5 28.5,221.5C 28.5,222.833 28.5,224.167 28.5,225.5C 48.8333,225.5 69.1667,225.5 89.5,225.5C 69.0067,226.497 48.3401,226.831 27.5,226.5C 27.5,224.5 27.5,222.5 27.5,220.5 Z"/></g>
<g><path style="opacity:1" fill="#004900" d="M 312.5,218.5 C 333.167,218.5 353.833,218.5 374.5,218.5C 374.5,219.167 374.5,219.833 374.5,220.5C 374.167,220.5 373.833,220.5 373.5,220.5C 352.833,220.5 332.167,220.5 311.5,220.5C 311.833,219.833 312.167,219.167 312.5,218.5 Z"/></g>
<g><path style="opacity:1" fill="#004b03" d="M 169.5,212.5 C 169.5,214.5 169.5,216.5 169.5,218.5C 190.34,218.831 211.007,218.497 231.5,217.5C 231.5,216.167 231.5,214.833 231.5,213.5C 231.5,213.167 231.5,212.833 231.5,212.5C 232.489,217.975 232.822,223.642 232.5,229.5C 232.768,231.099 232.434,232.432 231.5,233.5C 231.5,231.833 231.5,230.167 231.5,228.5C 210.833,228.5 190.167,228.5 169.5,228.5C 169.5,227.833 169.5,227.167 169.5,226.5C 190.34,226.831 211.007,226.497 231.5,225.5C 231.5,224.167 231.5,222.833 231.5,221.5C 211.007,220.503 190.34,220.169 169.5,220.5C 169.5,222.167 169.5,223.833 169.5,225.5C 168.167,221.167 168.167,216.833 169.5,212.5 Z"/></g>
<g><path style="opacity:1" fill="#004a00" d="M 27.5,218.5 C 48.5,218.5 69.5,218.5 90.5,218.5C 90.5,220.833 90.5,223.167 90.5,225.5C 90.1667,225.5 89.8333,225.5 89.5,225.5C 89.5,224.167 89.5,222.833 89.5,221.5C 69.0067,220.503 48.3401,220.169 27.5,220.5C 27.5,219.833 27.5,219.167 27.5,218.5 Z"/></g>
<g><path style="opacity:1" fill="#22bb2b" d="M 382.5,212.5 C 403.5,212.5 424.5,212.5 445.5,212.5C 445.5,214.5 445.5,216.5 445.5,218.5C 424.5,218.5 403.5,218.5 382.5,218.5C 382.5,216.833 382.5,215.167 382.5,213.5C 382.5,213.167 382.5,212.833 382.5,212.5 Z"/></g>
<g><path style="opacity:1" fill="#22bc29" d="M 311.5,213.5 C 311.5,213.167 311.5,212.833 311.5,212.5C 332.167,212.5 352.833,212.5 373.5,212.5C 374.461,214.265 374.795,216.265 374.5,218.5C 353.833,218.5 333.167,218.5 312.5,218.5C 311.833,218.5 311.5,218.167 311.5,217.5C 332.167,217.5 352.833,217.5 373.5,217.5C 373.5,216.167 373.5,214.833 373.5,213.5C 352.833,213.5 332.167,213.5 311.5,213.5 Z"/></g>
<g><path style="opacity:1" fill="#22bc29" d="M 302.5,212.5 C 303.833,214.5 303.833,216.5 302.5,218.5C 281.833,218.5 261.167,218.5 240.5,218.5C 240.5,216.5 240.5,214.5 240.5,212.5C 261.167,212.5 281.833,212.5 302.5,212.5 Z"/></g>
<g><path style="opacity:1" fill="#21ba2a" d="M 98.5,212.5 C 119.5,212.5 140.5,212.5 161.5,212.5C 161.5,214.5 161.5,216.5 161.5,218.5C 140.5,218.5 119.5,218.5 98.5,218.5C 98.5,216.5 98.5,214.5 98.5,212.5 Z"/></g>
<g><path style="opacity:1" fill="#22bb2a" d="M 27.5,213.5 C 27.5,213.167 27.5,212.833 27.5,212.5C 48.1667,212.5 68.8333,212.5 89.5,212.5C 90.4614,214.265 90.7947,216.265 90.5,218.5C 69.5,218.5 48.5,218.5 27.5,218.5C 27.5,218.167 27.5,217.833 27.5,217.5C 48.1667,217.5 68.8333,217.5 89.5,217.5C 89.5,216.167 89.5,214.833 89.5,213.5C 68.8333,213.5 48.1667,213.5 27.5,213.5 Z"/></g>
<g><path style="opacity:1" fill="#10f316" d="M 383.5,213.5 C 403.833,213.5 424.167,213.5 444.5,213.5C 444.5,214.833 444.5,216.167 444.5,217.5C 424.167,217.5 403.833,217.5 383.5,217.5C 383.5,216.167 383.5,214.833 383.5,213.5 Z"/></g>
<g><path style="opacity:1" fill="#0ff317" d="M 311.5,213.5 C 332.167,213.5 352.833,213.5 373.5,213.5C 373.5,214.833 373.5,216.167 373.5,217.5C 352.833,217.5 332.167,217.5 311.5,217.5C 311.5,216.167 311.5,214.833 311.5,213.5 Z"/></g>
<g><path style="opacity:1" fill="#0ff316" d="M 241.5,213.5 C 261.833,213.5 282.167,213.5 302.5,213.5C 302.5,214.833 302.5,216.167 302.5,217.5C 282.167,217.5 261.833,217.5 241.5,217.5C 241.5,216.167 241.5,214.833 241.5,213.5 Z"/></g>
<g><path style="opacity:1" fill="#0ff316" d="M 99.5,213.5 C 119.833,213.5 140.167,213.5 160.5,213.5C 160.5,214.833 160.5,216.167 160.5,217.5C 140.167,217.5 119.833,217.5 99.5,217.5C 99.5,216.167 99.5,214.833 99.5,213.5 Z"/></g>
<g><path style="opacity:1" fill="#011519" d="M 445.5,203.5 C 451.789,204.372 458.122,204.705 464.5,204.5C 464.5,215.167 464.5,225.833 464.5,236.5C 458.833,236.5 453.167,236.5 447.5,236.5C 446.912,233.39 446.245,230.39 445.5,227.5C 445.5,227.167 445.5,226.833 445.5,226.5C 445.5,224.5 445.5,222.5 445.5,220.5C 445.5,219.833 445.5,219.167 445.5,218.5C 445.5,216.5 445.5,214.5 445.5,212.5C 445.5,211.833 445.5,211.167 445.5,210.5C 445.5,208.5 445.5,206.5 445.5,204.5C 445.5,204.167 445.5,203.833 445.5,203.5 Z"/></g>
<g><path style="opacity:1" fill="#004400" d="M 382.5,210.5 C 403.5,210.5 424.5,210.5 445.5,210.5C 445.5,211.167 445.5,211.833 445.5,212.5C 424.5,212.5 403.5,212.5 382.5,212.5C 382.5,211.833 382.5,211.167 382.5,210.5 Z"/></g>
<g><path style="opacity:1" fill="#004400" d="M 311.5,210.5 C 332.167,210.5 352.833,210.5 373.5,210.5C 373.5,211.167 373.5,211.833 373.5,212.5C 352.833,212.5 332.167,212.5 311.5,212.5C 311.5,211.833 311.5,211.167 311.5,210.5 Z"/></g>
<g><path style="opacity:1" fill="#004400" d="M 240.5,205.5 C 240.5,207.167 240.5,208.833 240.5,210.5C 261.167,210.5 281.833,210.5 302.5,210.5C 302.5,211.167 302.5,211.833 302.5,212.5C 281.833,212.5 261.167,212.5 240.5,212.5C 240.5,214.5 240.5,216.5 240.5,218.5C 261.167,218.5 281.833,218.5 302.5,218.5C 302.833,219.167 303.167,219.833 303.5,220.5C 303.167,220.5 302.833,220.5 302.5,220.5C 281.833,220.5 261.167,220.5 240.5,220.5C 240.5,222.167 240.5,223.833 240.5,225.5C 239.167,218.833 239.167,212.167 240.5,205.5 Z"/></g>
<g><path style="opacity:1" fill="#004300" d="M 98.5,210.5 C 119.5,210.5 140.5,210.5 161.5,210.5C 161.5,211.167 161.5,211.833 161.5,212.5C 140.5,212.5 119.5,212.5 98.5,212.5C 98.5,211.833 98.5,211.167 98.5,210.5 Z"/></g>
<g><path style="opacity:1" fill="#28bc2f" d="M 445.5,204.5 C 445.5,206.5 445.5,208.5 445.5,210.5C 424.5,210.5 403.5,210.5 382.5,210.5C 382.5,208.5 382.5,206.5 382.5,204.5C 403.5,204.5 424.5,204.5 445.5,204.5 Z"/></g>
<g><path style="opacity:1" fill="#27bd2e" d="M 373.5,204.5 C 374.833,206.5 374.833,208.5 373.5,210.5C 352.833,210.5 332.167,210.5 311.5,210.5C 311.5,208.5 311.5,206.5 311.5,204.5C 332.167,204.5 352.833,204.5 373.5,204.5 Z"/></g>
<g><path style="opacity:1" fill="#27bd2e" d="M 241.5,204.5 C 262.167,204.5 282.833,204.5 303.5,204.5C 303.795,206.735 303.461,208.735 302.5,210.5C 281.833,210.5 261.167,210.5 240.5,210.5C 240.5,208.833 240.5,207.167 240.5,205.5C 240.5,204.833 240.833,204.5 241.5,204.5 Z"/></g>
<g><path style="opacity:1" fill="#27bd2f" d="M 98.5,204.5 C 119.5,204.5 140.5,204.5 161.5,204.5C 161.5,206.5 161.5,208.5 161.5,210.5C 140.5,210.5 119.5,210.5 98.5,210.5C 98.5,208.5 98.5,206.5 98.5,204.5 Z"/></g>
<g><path style="opacity:1" fill="#0ef511" d="M 383.5,205.5 C 403.833,205.5 424.167,205.5 444.5,205.5C 444.5,206.833 444.5,208.167 444.5,209.5C 424.167,209.5 403.833,209.5 383.5,209.5C 383.5,208.167 383.5,206.833 383.5,205.5 Z"/></g>
<g><path style="opacity:1" fill="#0ef512" d="M 312.5,205.5 C 332.833,205.5 353.167,205.5 373.5,205.5C 373.5,206.833 373.5,208.167 373.5,209.5C 353.167,209.5 332.833,209.5 312.5,209.5C 312.5,208.167 312.5,206.833 312.5,205.5 Z"/></g>
<g><path style="opacity:1" fill="#0ef511" d="M 99.5,205.5 C 119.833,205.5 140.167,205.5 160.5,205.5C 160.5,206.833 160.5,208.167 160.5,209.5C 140.167,209.5 119.833,209.5 99.5,209.5C 99.5,208.167 99.5,206.833 99.5,205.5 Z"/></g>
<g><path style="opacity:1" fill="#08fa0c" d="M 241.5,205.5 C 261.833,205.5 282.167,205.5 302.5,205.5C 302.5,206.833 302.5,208.167 302.5,209.5C 282.167,209.5 261.833,209.5 241.5,209.5C 241.5,208.167 241.5,206.833 241.5,205.5 Z"/></g>
<g><path style="opacity:1" fill="#003d01" d="M 98.5,202.5 C 119.167,202.5 139.833,202.5 160.5,202.5C 160.833,202.5 161.167,202.5 161.5,202.5C 161.5,203.167 161.5,203.833 161.5,204.5C 140.5,204.5 119.5,204.5 98.5,204.5C 98.5,203.833 98.5,203.167 98.5,202.5 Z"/></g>
<g><path style="opacity:1" fill="#2ad72d" d="M 240.5,197.5 C 241.167,197.5 241.833,197.5 242.5,197.5C 241.766,198.708 241.433,200.041 241.5,201.5C 261.833,201.5 282.167,201.5 302.5,201.5C 302.5,201.833 302.5,202.167 302.5,202.5C 282.167,202.5 261.833,202.5 241.5,202.5C 240.549,201.081 240.216,199.415 240.5,197.5 Z"/></g>
<g><path style="opacity:1" fill="#2ad72f" d="M 98.5,197.5 C 98.8333,197.5 99.1667,197.5 99.5,197.5C 99.5,198.833 99.5,200.167 99.5,201.5C 119.833,201.5 140.167,201.5 160.5,201.5C 160.5,201.833 160.5,202.167 160.5,202.5C 139.833,202.5 119.167,202.5 98.5,202.5C 98.5,200.833 98.5,199.167 98.5,197.5 Z"/></g>
<g><path style="opacity:1" fill="#0ff413" d="M 242.5,197.5 C 262.5,197.5 282.5,197.5 302.5,197.5C 302.5,198.833 302.5,200.167 302.5,201.5C 282.167,201.5 261.833,201.5 241.5,201.5C 241.433,200.041 241.766,198.708 242.5,197.5 Z"/></g>
<g><path style="opacity:1" fill="#0ff514" d="M 99.5,197.5 C 119.833,197.5 140.167,197.5 160.5,197.5C 160.5,198.833 160.5,200.167 160.5,201.5C 140.167,201.5 119.833,201.5 99.5,201.5C 99.5,200.167 99.5,198.833 99.5,197.5 Z"/></g>
<g><path style="opacity:1" fill="#199e20" d="M 240.5,197.5 C 240.5,196.833 240.833,196.5 241.5,196.5C 262.167,196.5 282.833,196.5 303.5,196.5C 303.795,198.735 303.461,200.735 302.5,202.5C 302.5,202.167 302.5,201.833 302.5,201.5C 302.5,200.167 302.5,198.833 302.5,197.5C 282.5,197.5 262.5,197.5 242.5,197.5C 241.833,197.5 241.167,197.5 240.5,197.5 Z"/></g>
<g><path style="opacity:1" fill="#189d21" d="M 98.5,197.5 C 119.327,196.503 140.327,196.169 161.5,196.5C 161.5,198.5 161.5,200.5 161.5,202.5C 161.167,202.5 160.833,202.5 160.5,202.5C 160.5,202.167 160.5,201.833 160.5,201.5C 160.5,200.167 160.5,198.833 160.5,197.5C 140.167,197.5 119.833,197.5 99.5,197.5C 99.1667,197.5 98.8333,197.5 98.5,197.5 Z"/></g>
<g><path style="opacity:1" fill="#003301" d="M 382.5,181.5 C 382.5,183.167 382.5,184.833 382.5,186.5C 402.993,187.497 423.66,187.831 444.5,187.5C 444.5,187.833 444.5,188.167 444.5,188.5C 423.66,188.169 402.993,188.503 382.5,189.5C 382.216,191.415 382.549,193.081 383.5,194.5C 403.993,195.497 424.66,195.831 445.5,195.5C 445.5,195.833 445.5,196.167 445.5,196.5C 424.327,196.169 403.327,196.503 382.5,197.5C 382.5,199.167 382.5,200.833 382.5,202.5C 403.167,202.5 423.833,202.5 444.5,202.5C 444.833,202.5 445.167,202.5 445.5,202.5C 445.5,202.833 445.5,203.167 445.5,203.5C 445.5,203.833 445.5,204.167 445.5,204.5C 424.5,204.5 403.5,204.5 382.5,204.5C 382.5,206.5 382.5,208.5 382.5,210.5C 382.5,211.167 382.5,211.833 382.5,212.5C 382.5,212.833 382.5,213.167 382.5,213.5C 382.167,213.5 381.833,213.5 381.5,213.5C 381.5,204.5 381.5,195.5 381.5,186.5C 381.216,184.585 381.549,182.919 382.5,181.5 Z"/></g>
<g><path style="opacity:1" fill="#003b03" d="M 97.5,189.5 C 97.8333,189.5 98.1667,189.5 98.5,189.5C 98.5,191.167 98.5,192.833 98.5,194.5C 119.167,194.5 139.833,194.5 160.5,194.5C 160.833,194.5 161.167,194.5 161.5,194.5C 161.5,195.167 161.5,195.833 161.5,196.5C 140.327,196.169 119.327,196.503 98.5,197.5C 98.5,199.167 98.5,200.833 98.5,202.5C 97.5489,201.081 97.2155,199.415 97.5,197.5C 96.3433,194.693 96.3433,192.026 97.5,189.5 Z"/></g>
<g><path style="opacity:1" fill="#1dec1d" d="M 98.5,189.5 C 119.167,189.5 139.833,189.5 160.5,189.5C 160.5,191.167 160.5,192.833 160.5,194.5C 139.833,194.5 119.167,194.5 98.5,194.5C 98.5,192.833 98.5,191.167 98.5,189.5 Z"/></g>
<g><path style="opacity:1" fill="#001704" d="M 374.5,181.5 C 375.167,181.833 375.833,182.167 376.5,182.5C 376.712,184.384 377.712,185.717 379.5,186.5C 377.187,189.555 375.853,193.055 375.5,197C 376.089,199.514 377.422,201.514 379.5,203C 378.953,203.925 378.287,204.758 377.5,205.5C 376.833,211.988 376.167,218.321 375.5,224.5C 375.672,223.508 375.338,222.842 374.5,222.5C 374.5,221.833 374.5,221.167 374.5,220.5C 374.5,219.833 374.5,219.167 374.5,218.5C 374.795,216.265 374.461,214.265 373.5,212.5C 373.5,211.833 373.5,211.167 373.5,210.5C 374.833,208.5 374.833,206.5 373.5,204.5C 373.5,203.833 373.5,203.167 373.5,202.5C 374.461,200.735 374.795,198.735 374.5,196.5C 374.5,195.833 374.5,195.167 374.5,194.5C 374.795,192.265 374.461,190.265 373.5,188.5C 373.5,188.167 373.5,187.833 373.5,187.5C 374.461,185.735 374.795,183.735 374.5,181.5 Z"/></g>
<g><path style="opacity:1" fill="#00fe02" d="M 100.5,190.5 C 120.178,190.167 139.845,190.5 159.5,191.5C 149.667,191.833 139.833,192.167 130,192.5C 119.81,192.499 109.977,191.832 100.5,190.5 Z"/></g>
<g><path style="opacity:1" fill="#020f14" d="M 97.5,189.5 C 96.3433,192.026 96.3433,194.693 97.5,197.5C 96.5093,203.979 96.176,210.646 96.5,217.5C 93.6118,217.78 92.1118,216.447 92,213.5C 92.0435,210.437 92.3768,207.437 93,204.5C 91.6667,202.167 89.6667,201.167 87,201.5C 67.8246,202.814 48.6579,202.814 29.5,201.5C 25.6676,202.713 24.6676,205.046 26.5,208.5C 26.7973,215.92 26.464,223.254 25.5,230.5C 22.8554,232.371 20.3554,234.371 18,236.5C 15.5379,235.841 13.0379,235.507 10.5,235.5C 10.5,220.167 10.5,204.833 10.5,189.5C 39.3239,190.147 67.9906,189.481 96.5,187.5C 97.2975,187.957 97.6309,188.624 97.5,189.5 Z"/></g>
<g><path style="opacity:1" fill="#0bf612" d="M 27.5,213.5 C 48.1667,213.5 68.8333,213.5 89.5,213.5C 89.5,214.833 89.5,216.167 89.5,217.5C 68.8333,217.5 48.1667,217.5 27.5,217.5C 27.5,216.167 27.5,214.833 27.5,213.5 Z"/></g>
<g><path style="opacity:1" fill="#004400" d="M 27.5,210.5 C 48.1667,210.5 68.8333,210.5 89.5,210.5C 89.5,211.167 89.5,211.833 89.5,212.5C 68.8333,212.5 48.1667,212.5 27.5,212.5C 27.5,211.833 27.5,211.167 27.5,210.5 Z"/></g>
<g><path style="opacity:1" fill="#25be2b" d="M 27.5,204.5 C 48.5,204.5 69.5,204.5 90.5,204.5C 90.7947,206.735 90.4614,208.735 89.5,210.5C 68.8333,210.5 48.1667,210.5 27.5,210.5C 27.5,210.167 27.5,209.833 27.5,209.5C 48.1667,209.5 68.8333,209.5 89.5,209.5C 89.5,208.167 89.5,206.833 89.5,205.5C 68.7577,205.179 48.091,205.512 27.5,206.5C 27.5,205.833 27.5,205.167 27.5,204.5 Z"/></g>
<g><path style="opacity:1" fill="#10f413" d="M 27.5,209.5 C 27.5,208.5 27.5,207.5 27.5,206.5C 48.091,205.512 68.7577,205.179 89.5,205.5C 89.5,206.833 89.5,208.167 89.5,209.5C 68.8333,209.5 48.1667,209.5 27.5,209.5 Z"/></g>
<g><path style="opacity:1" fill="#014008" d="M 310.5,181.5 C 310.833,181.5 311.167,181.5 311.5,181.5C 311.5,183.167 311.5,184.833 311.5,186.5C 331.993,187.497 352.66,187.831 373.5,187.5C 373.5,187.833 373.5,188.167 373.5,188.5C 352.66,188.169 331.993,188.503 311.5,189.5C 311.5,191.167 311.5,192.833 311.5,194.5C 332.167,194.5 352.833,194.5 373.5,194.5C 373.833,194.5 374.167,194.5 374.5,194.5C 374.5,195.167 374.5,195.833 374.5,196.5C 353.327,196.169 332.327,196.503 311.5,197.5C 311.5,199.167 311.5,200.833 311.5,202.5C 332.167,202.5 352.833,202.5 373.5,202.5C 373.5,203.167 373.5,203.833 373.5,204.5C 352.833,204.5 332.167,204.5 311.5,204.5C 311.5,206.5 311.5,208.5 311.5,210.5C 311.5,211.167 311.5,211.833 311.5,212.5C 311.5,212.833 311.5,213.167 311.5,213.5C 311.5,214.833 311.5,216.167 311.5,217.5C 311.5,218.167 311.833,218.5 312.5,218.5C 312.167,219.167 311.833,219.833 311.5,220.5C 311.5,222.167 311.5,223.833 311.5,225.5C 332.327,226.497 353.327,226.831 374.5,226.5C 374.5,225.167 374.5,223.833 374.5,222.5C 375.338,222.842 375.672,223.508 375.5,224.5C 375.665,227.85 375.498,231.183 375,234.5C 372.959,235.423 370.792,235.756 368.5,235.5C 349.5,235.5 330.5,235.5 311.5,235.5C 311.5,234.833 311.5,234.167 311.5,233.5C 310.566,232.432 310.232,231.099 310.5,229.5C 310.5,213.5 310.5,197.5 310.5,181.5 Z"/></g>
<g><path style="opacity:1" fill="#1fe627" d="M 311.5,233.5 C 311.5,231.833 311.5,230.167 311.5,228.5C 332.5,228.5 353.5,228.5 374.5,228.5C 374.5,230.167 374.5,231.833 374.5,233.5C 353.5,233.5 332.5,233.5 311.5,233.5 Z"/></g>
<g><path style="opacity:1" fill="#03fc04" d="M 312.5,229.5 C 332.5,229.5 352.5,229.5 372.5,229.5C 372.5,230.5 372.5,231.5 372.5,232.5C 352.5,232.5 332.5,232.5 312.5,232.5C 312.5,231.5 312.5,230.5 312.5,229.5 Z"/></g>
<g><path style="opacity:1" fill="#167f0f" d="M 240.5,189.5 C 261.327,188.503 282.327,188.169 303.5,188.5C 303.5,190.833 303.5,193.167 303.5,195.5C 282.833,195.5 262.167,195.5 241.5,195.5C 240.833,195.5 240.5,195.167 240.5,194.5C 261.167,194.5 281.833,194.5 302.5,194.5C 302.5,192.833 302.5,191.167 302.5,189.5C 281.833,189.5 261.167,189.5 240.5,189.5 Z"/></g>
<g><path style="opacity:1" fill="#1f8e18" d="M 98.5,189.5 C 98.5,188.833 98.8333,188.5 99.5,188.5C 120.167,188.5 140.833,188.5 161.5,188.5C 161.5,190.5 161.5,192.5 161.5,194.5C 161.167,194.5 160.833,194.5 160.5,194.5C 160.5,192.833 160.5,191.167 160.5,189.5C 139.833,189.5 119.167,189.5 98.5,189.5 Z"/></g>
<g><path style="opacity:1" fill="#022e02" d="M 240.5,181.5 C 240.5,183.167 240.5,184.833 240.5,186.5C 261.327,187.497 282.327,187.831 303.5,187.5C 303.5,185.5 303.5,183.5 303.5,181.5C 304.833,196.167 304.833,210.833 303.5,225.5C 303.5,223.833 303.5,222.167 303.5,220.5C 303.167,219.833 302.833,219.167 302.5,218.5C 303.833,216.5 303.833,214.5 302.5,212.5C 302.5,211.833 302.5,211.167 302.5,210.5C 303.461,208.735 303.795,206.735 303.5,204.5C 282.833,204.5 262.167,204.5 241.5,204.5C 241.5,203.833 241.5,203.167 241.5,202.5C 261.833,202.5 282.167,202.5 302.5,202.5C 303.461,200.735 303.795,198.735 303.5,196.5C 282.833,196.5 262.167,196.5 241.5,196.5C 241.5,196.167 241.5,195.833 241.5,195.5C 262.167,195.5 282.833,195.5 303.5,195.5C 303.5,193.167 303.5,190.833 303.5,188.5C 282.327,188.169 261.327,188.503 240.5,189.5C 240.5,191.167 240.5,192.833 240.5,194.5C 239.167,190.167 239.167,185.833 240.5,181.5 Z"/></g>
<g><path style="opacity:1" fill="#1cec1d" d="M 240.5,189.5 C 261.167,189.5 281.833,189.5 302.5,189.5C 302.5,191.167 302.5,192.833 302.5,194.5C 281.833,194.5 261.167,194.5 240.5,194.5C 240.5,192.833 240.5,191.167 240.5,189.5 Z"/></g>
<g><path style="opacity:1" fill="#00fe03" d="M 242.5,190.5 C 261.512,190.167 280.512,190.5 299.5,191.5C 290,191.833 280.5,192.167 271,192.5C 261.142,192.498 251.642,191.832 242.5,190.5 Z"/></g>
<g><path style="opacity:1" fill="#247107" d="M 240.5,181.5 C 260.993,180.503 281.66,180.169 302.5,180.5C 303.167,180.5 303.5,180.833 303.5,181.5C 303.5,183.5 303.5,185.5 303.5,187.5C 282.327,187.831 261.327,187.497 240.5,186.5C 261.167,186.5 281.833,186.5 302.5,186.5C 302.5,184.833 302.5,183.167 302.5,181.5C 281.833,181.5 261.167,181.5 240.5,181.5 Z"/></g>
<g><path style="opacity:1" fill="#257106" d="M 98.5,181.5 C 119.327,180.503 140.327,180.169 161.5,180.5C 161.5,182.833 161.5,185.167 161.5,187.5C 140.833,187.5 120.167,187.5 99.5,187.5C 98.8333,187.5 98.5,187.167 98.5,186.5C 119.167,186.5 139.833,186.5 160.5,186.5C 160.5,184.833 160.5,183.167 160.5,181.5C 139.833,181.5 119.167,181.5 98.5,181.5 Z"/></g>
<g><path style="opacity:1" fill="#021309" d="M 161.5,155.5 C 163.684,159.362 166.684,162.695 170.5,165.5C 171.374,167.747 171.708,170.08 171.5,172.5C 170.508,172.328 169.842,172.662 169.5,173.5C 169.5,175.5 169.5,177.5 169.5,179.5C 190.34,179.831 211.007,179.497 231.5,178.5C 232.461,176.735 232.795,174.735 232.5,172.5C 231.167,172.5 229.833,172.5 228.5,172.5C 228.389,171.883 228.056,171.383 227.5,171C 229.167,170.333 230.833,170.333 232.5,171C 233.726,172.635 235.059,174.135 236.5,175.5C 237.386,174.675 237.719,173.675 237.5,172.5C 238.5,172.5 239.5,172.5 240.5,172.5C 240.5,172.833 240.5,173.167 240.5,173.5C 240.5,175.167 240.5,176.833 240.5,178.5C 260.993,179.497 281.66,179.831 302.5,179.5C 302.5,179.833 302.5,180.167 302.5,180.5C 281.66,180.169 260.993,180.503 240.5,181.5C 239.167,185.833 239.167,190.167 240.5,194.5C 240.5,195.167 240.833,195.5 241.5,195.5C 241.5,195.833 241.5,196.167 241.5,196.5C 240.833,196.5 240.5,196.833 240.5,197.5C 240.216,199.415 240.549,201.081 241.5,202.5C 241.5,203.167 241.5,203.833 241.5,204.5C 240.833,204.5 240.5,204.833 240.5,205.5C 239.167,212.167 239.167,218.833 240.5,225.5C 240.5,226.167 240.833,226.5 241.5,226.5C 241.167,227.167 240.833,227.833 240.5,228.5C 238.744,229.552 238.077,231.219 238.5,233.5C 237.167,233.5 235.833,233.5 234.5,233.5C 234.843,231.517 234.176,230.183 232.5,229.5C 232.822,223.642 232.489,217.975 231.5,212.5C 231.5,211.833 231.5,211.167 231.5,210.5C 232.833,200.833 232.833,191.167 231.5,181.5C 211.007,180.503 190.34,180.169 169.5,180.5C 169.5,182.5 169.5,184.5 169.5,186.5C 169.5,187.167 169.5,187.833 169.5,188.5C 169.5,190.5 169.5,192.5 169.5,194.5C 168.532,192.393 168.198,190.059 168.5,187.5C 166.833,187.5 165.167,187.5 163.5,187.5C 163.5,186.167 163.5,184.833 163.5,183.5C 165.167,183.5 166.833,183.5 168.5,183.5C 168.657,182.127 168.49,180.793 168,179.5C 166.601,179.501 165.101,179.835 163.5,180.5C 162.833,195.661 162.167,210.661 161.5,225.5C 161.5,223.833 161.5,222.167 161.5,220.5C 161.5,219.833 161.5,219.167 161.5,218.5C 161.5,216.5 161.5,214.5 161.5,212.5C 161.5,211.833 161.5,211.167 161.5,210.5C 161.5,208.5 161.5,206.5 161.5,204.5C 161.5,203.833 161.5,203.167 161.5,202.5C 161.5,200.5 161.5,198.5 161.5,196.5C 161.5,195.833 161.5,195.167 161.5,194.5C 161.5,192.5 161.5,190.5 161.5,188.5C 140.833,188.5 120.167,188.5 99.5,188.5C 99.5,188.167 99.5,187.833 99.5,187.5C 120.167,187.5 140.833,187.5 161.5,187.5C 161.5,185.167 161.5,182.833 161.5,180.5C 140.327,180.169 119.327,180.503 98.5,181.5C 98.5,183.167 98.5,184.833 98.5,186.5C 97.1798,183.586 96.8465,180.586 97.5,177.5C 97.6816,175.409 97.3482,173.409 96.5,171.5C 97.0505,169.343 97.7171,167.343 98.5,165.5C 98.5,167.167 98.5,168.833 98.5,170.5C 98.5,171.167 98.8333,171.5 99.5,171.5C 99.5,171.833 99.5,172.167 99.5,172.5C 98.8333,172.5 98.5,172.833 98.5,173.5C 98.5,175.167 98.5,176.833 98.5,178.5C 119.327,179.497 140.327,179.831 161.5,179.5C 161.5,177.5 161.5,175.5 161.5,173.5C 163.758,173.775 164.092,174.775 162.5,176.5C 163.365,177.583 164.365,177.749 165.5,177C 166.954,174.756 168.288,172.423 169.5,170C 167.35,168.351 165.35,166.518 163.5,164.5C 162.933,162.018 162.266,159.684 161.5,157.5C 161.5,156.833 161.5,156.167 161.5,155.5 Z"/></g>
<g><path style="opacity:1" fill="#11f516" d="M 231.5,221.5 C 231.5,222.833 231.5,224.167 231.5,225.5C 211.167,225.5 190.833,225.5 170.5,225.5C 170.5,224.167 170.5,222.833 170.5,221.5C 190.833,221.5 211.167,221.5 231.5,221.5 Z"/></g>
<g><path style="opacity:1" fill="#22be2a" d="M 169.5,212.5 C 190.167,212.5 210.833,212.5 231.5,212.5C 231.5,212.833 231.5,213.167 231.5,213.5C 211.167,213.5 190.833,213.5 170.5,213.5C 170.5,214.833 170.5,216.167 170.5,217.5C 190.833,217.5 211.167,217.5 231.5,217.5C 211.007,218.497 190.34,218.831 169.5,218.5C 169.5,216.5 169.5,214.5 169.5,212.5 Z"/></g>
<g><path style="opacity:1" fill="#0ff316" d="M 231.5,213.5 C 231.5,214.833 231.5,216.167 231.5,217.5C 211.167,217.5 190.833,217.5 170.5,217.5C 170.5,216.167 170.5,214.833 170.5,213.5C 190.833,213.5 211.167,213.5 231.5,213.5 Z"/></g>
<g><path style="opacity:1" fill="#004400" d="M 169.5,210.5 C 190.167,210.5 210.833,210.5 231.5,210.5C 231.5,211.167 231.5,211.833 231.5,212.5C 210.833,212.5 190.167,212.5 169.5,212.5C 169.5,211.833 169.5,211.167 169.5,210.5 Z"/></g>
<g><path style="opacity:1" fill="#27bf2e" d="M 169.5,204.5 C 190.34,204.169 211.007,204.503 231.5,205.5C 211.167,205.5 190.833,205.5 170.5,205.5C 170.5,206.833 170.5,208.167 170.5,209.5C 190.833,209.5 211.167,209.5 231.5,209.5C 231.5,209.833 231.5,210.167 231.5,210.5C 210.833,210.5 190.167,210.5 169.5,210.5C 169.5,208.5 169.5,206.5 169.5,204.5 Z"/></g>
<g><path style="opacity:1" fill="#0ff513" d="M 231.5,205.5 C 231.5,206.833 231.5,208.167 231.5,209.5C 211.167,209.5 190.833,209.5 170.5,209.5C 170.5,208.167 170.5,206.833 170.5,205.5C 190.833,205.5 211.167,205.5 231.5,205.5 Z"/></g>
<g><path style="opacity:1" fill="#19e41d" d="M 169.5,196.5 C 190.167,196.5 210.833,196.5 231.5,196.5C 231.5,198.5 231.5,200.5 231.5,202.5C 210.833,202.5 190.167,202.5 169.5,202.5C 169.5,200.5 169.5,198.5 169.5,196.5 Z"/></g>
<g><path style="opacity:1" fill="#004305" d="M 231.5,181.5 C 232.833,191.167 232.833,200.833 231.5,210.5C 231.5,210.167 231.5,209.833 231.5,209.5C 231.5,208.167 231.5,206.833 231.5,205.5C 211.007,204.503 190.34,204.169 169.5,204.5C 169.5,203.833 169.5,203.167 169.5,202.5C 190.167,202.5 210.833,202.5 231.5,202.5C 231.5,200.5 231.5,198.5 231.5,196.5C 210.833,196.5 190.167,196.5 169.5,196.5C 169.5,195.833 169.5,195.167 169.5,194.5C 190.34,194.831 211.007,194.497 231.5,193.5C 231.5,192.167 231.5,190.833 231.5,189.5C 211.007,188.503 190.34,188.169 169.5,188.5C 169.5,187.833 169.5,187.167 169.5,186.5C 190.167,186.5 210.833,186.5 231.5,186.5C 231.5,184.833 231.5,183.167 231.5,181.5 Z"/></g>
<g><path style="opacity:1" fill="#27c227" d="M 169.5,188.5 C 190.34,188.169 211.007,188.503 231.5,189.5C 211.167,189.5 190.833,189.5 170.5,189.5C 170.5,190.833 170.5,192.167 170.5,193.5C 190.833,193.5 211.167,193.5 231.5,193.5C 211.007,194.497 190.34,194.831 169.5,194.5C 169.5,192.5 169.5,190.5 169.5,188.5 Z"/></g>
<g><path style="opacity:1" fill="#10f611" d="M 231.5,189.5 C 231.5,190.833 231.5,192.167 231.5,193.5C 211.167,193.5 190.833,193.5 170.5,193.5C 170.5,192.167 170.5,190.833 170.5,189.5C 190.833,189.5 211.167,189.5 231.5,189.5 Z"/></g>
<g><path style="opacity:1" fill="#65cf27" d="M 231.5,181.5 C 231.5,183.167 231.5,184.833 231.5,186.5C 210.833,186.5 190.167,186.5 169.5,186.5C 169.5,184.5 169.5,182.5 169.5,180.5C 190.34,180.169 211.007,180.503 231.5,181.5 Z"/></g>
<g><path style="opacity:1" fill="#64f716" d="M 98.5,181.5 C 119.167,181.5 139.833,181.5 160.5,181.5C 160.5,183.167 160.5,184.833 160.5,186.5C 139.833,186.5 119.167,186.5 98.5,186.5C 98.5,184.833 98.5,183.167 98.5,181.5 Z"/></g>
<g><path style="opacity:1" fill="#61fc07" d="M 170.5,182.5 C 190.5,182.5 210.5,182.5 230.5,182.5C 230.5,183.5 230.5,184.5 230.5,185.5C 210.5,185.5 190.5,185.5 170.5,185.5C 170.5,184.5 170.5,183.5 170.5,182.5 Z"/></g>
<g><path style="opacity:1" fill="#6cf61b" d="M 240.5,181.5 C 261.167,181.5 281.833,181.5 302.5,181.5C 302.5,183.167 302.5,184.833 302.5,186.5C 281.833,186.5 261.167,186.5 240.5,186.5C 240.5,184.833 240.5,183.167 240.5,181.5 Z"/></g>
<g><path style="opacity:1" fill="#566e02" d="M 240.5,173.5 C 240.5,173.167 240.5,172.833 240.5,172.5C 261.5,172.5 282.5,172.5 303.5,172.5C 303.802,175.059 303.468,177.393 302.5,179.5C 281.66,179.831 260.993,179.497 240.5,178.5C 261.167,178.5 281.833,178.5 302.5,178.5C 302.5,177.5 302.5,176.5 302.5,175.5C 282.527,173.512 262.194,172.845 241.5,173.5C 241.167,173.5 240.833,173.5 240.5,173.5 Z"/></g>
<g><path style="opacity:1" fill="#566d02" d="M 98.5,173.5 C 98.5,172.833 98.8333,172.5 99.5,172.5C 120.34,172.169 141.007,172.503 161.5,173.5C 161.5,175.5 161.5,177.5 161.5,179.5C 140.327,179.831 119.327,179.497 98.5,178.5C 119.34,178.831 140.007,178.497 160.5,177.5C 160.5,176.167 160.5,174.833 160.5,173.5C 140.167,173.5 119.833,173.5 99.5,173.5C 99.1667,173.5 98.8333,173.5 98.5,173.5 Z"/></g>
<g><path style="opacity:1" fill="#cefa1b" d="M 240.5,173.5 C 240.833,173.5 241.167,173.5 241.5,173.5C 241.5,174.5 241.5,175.5 241.5,176.5C 261.811,175.56 282.144,175.227 302.5,175.5C 302.5,176.5 302.5,177.5 302.5,178.5C 281.833,178.5 261.167,178.5 240.5,178.5C 240.5,176.833 240.5,175.167 240.5,173.5 Z"/></g>
<g><path style="opacity:1" fill="#b2dd14" d="M 169.5,173.5 C 170.167,173.5 170.833,173.5 171.5,173.5C 171.389,174.117 171.056,174.617 170.5,175C 190.407,175.826 210.24,175.659 230,174.5C 230.21,176.058 230.71,177.391 231.5,178.5C 211.007,179.497 190.34,179.831 169.5,179.5C 169.5,177.5 169.5,175.5 169.5,173.5 Z"/></g>
<g><path style="opacity:1" fill="#cefa1c" d="M 98.5,173.5 C 98.8333,173.5 99.1667,173.5 99.5,173.5C 99.3433,174.873 99.51,176.207 100,177.5C 109.772,176.18 119.772,175.513 130,175.5C 140.394,175.524 150.561,176.191 160.5,177.5C 140.007,178.497 119.34,178.831 98.5,178.5C 98.5,176.833 98.5,175.167 98.5,173.5 Z"/></g>
<g><path style="opacity:1" fill="#ecfd1f" d="M 171.5,173.5 C 191.5,173.5 211.5,173.5 231.5,173.5C 231.5,175.167 231.5,176.833 231.5,178.5C 230.71,177.391 230.21,176.058 230,174.5C 210.24,175.659 190.407,175.826 170.5,175C 171.056,174.617 171.389,174.117 171.5,173.5 Z"/></g>
<g><path style="opacity:1" fill="#696a0f" d="M 169.5,173.5 C 169.842,172.662 170.508,172.328 171.5,172.5C 190.5,172.5 209.5,172.5 228.5,172.5C 229.833,172.5 231.167,172.5 232.5,172.5C 232.795,174.735 232.461,176.735 231.5,178.5C 231.5,176.833 231.5,175.167 231.5,173.5C 211.5,173.5 191.5,173.5 171.5,173.5C 170.833,173.5 170.167,173.5 169.5,173.5 Z"/></g>
<g><path style="opacity:1" fill="#00080a" d="M 10.5,159.5 C 38.502,159.333 66.502,159.5 94.5,160C 95.3578,161.57 96.0245,163.237 96.5,165C 95.7956,168.71 95.4623,172.543 95.5,176.5C 95.9569,177.298 96.6236,177.631 97.5,177.5C 96.8465,180.586 97.1798,183.586 98.5,186.5C 98.5,187.167 98.8333,187.5 99.5,187.5C 99.5,187.833 99.5,188.167 99.5,188.5C 98.8333,188.5 98.5,188.833 98.5,189.5C 98.1667,189.5 97.8333,189.5 97.5,189.5C 97.6309,188.624 97.2975,187.957 96.5,187.5C 67.9906,189.481 39.3239,190.147 10.5,189.5C 10.5,179.5 10.5,169.5 10.5,159.5 Z"/></g>
<g><path style="opacity:1" fill="#000001" d="M 464.5,204.5 C 458.122,204.705 451.789,204.372 445.5,203.5C 445.5,203.167 445.5,202.833 445.5,202.5C 445.5,200.5 445.5,198.5 445.5,196.5C 445.5,196.167 445.5,195.833 445.5,195.5C 445.802,192.941 445.468,190.607 444.5,188.5C 444.5,188.167 444.5,187.833 444.5,187.5C 445.468,185.393 445.802,183.059 445.5,180.5C 445.5,180.167 445.5,179.833 445.5,179.5C 445.5,177.5 445.5,175.5 445.5,173.5C 446.801,171.328 447.801,168.995 448.5,166.5C 444.81,167.206 441.476,168.54 438.5,170.5C 437.5,170.333 436.5,170.167 435.5,170C 442.692,165.04 442.026,163.206 433.5,164.5C 434.954,166.263 434.62,167.597 432.5,168.5C 416.534,167.848 400.534,167.181 384.5,166.5C 400.152,165.501 415.819,165.167 431.5,165.5C 431.5,164.167 431.5,162.833 431.5,161.5C 415.83,161.333 400.163,161.5 384.5,162C 382.548,164.855 381.381,168.022 381,171.5C 379.89,169.963 378.39,169.297 376.5,169.5C 376.5,168.5 376.5,167.5 376.5,166.5C 379.91,166.616 381.244,164.95 380.5,161.5C 378.142,161.253 376.142,161.919 374.5,163.5C 374.795,161.265 374.461,159.265 373.5,157.5C 353.007,156.503 332.34,156.169 311.5,156.5C 311.5,158.833 311.5,161.167 311.5,163.5C 332.167,163.5 352.833,163.5 373.5,163.5C 352.833,164.167 332.167,164.833 311.5,165.5C 311.5,166.167 311.5,166.833 311.5,167.5C 310.305,167.866 309.639,168.699 309.5,170C 310.394,173.776 310.728,177.61 310.5,181.5C 310.5,197.5 310.5,213.5 310.5,229.5C 309.425,232.239 307.425,233.906 304.5,234.5C 304.795,232.265 304.461,230.265 303.5,228.5C 303.5,227.833 303.5,227.167 303.5,226.5C 303.5,226.167 303.5,225.833 303.5,225.5C 304.833,210.833 304.833,196.167 303.5,181.5C 303.5,180.833 303.167,180.5 302.5,180.5C 302.5,180.167 302.5,179.833 302.5,179.5C 303.468,177.393 303.802,175.059 303.5,172.5C 282.5,172.5 261.5,172.5 240.5,172.5C 239.5,172.5 238.5,172.5 237.5,172.5C 237.719,173.675 237.386,174.675 236.5,175.5C 235.059,174.135 233.726,172.635 232.5,171C 230.833,170.333 229.167,170.333 227.5,171C 228.056,171.383 228.389,171.883 228.5,172.5C 209.5,172.5 190.5,172.5 171.5,172.5C 171.708,170.08 171.374,167.747 170.5,165.5C 166.684,162.695 163.684,159.362 161.5,155.5C 161.5,153.5 161.5,151.5 161.5,149.5C 161.5,148.5 161.5,147.5 161.5,146.5C 161.784,144.585 161.451,142.919 160.5,141.5C 160.5,140.833 160.5,140.167 160.5,139.5C 161.833,137.5 161.833,135.5 160.5,133.5C 160.5,132.833 160.5,132.167 160.5,131.5C 161.833,129.5 161.833,127.5 160.5,125.5C 160.5,124.833 160.5,124.167 160.5,123.5C 161.461,121.735 161.795,119.735 161.5,117.5C 161.5,116.833 161.5,116.167 161.5,115.5C 161.5,113.5 161.5,111.5 161.5,109.5C 140.497,109.333 119.497,109.5 98.5,110C 97.193,111.943 97.193,113.777 98.5,115.5C 98.5,116.167 98.5,116.833 98.5,117.5C 98.1667,118.167 97.8333,118.833 97.5,119.5C 96.6942,120.997 96.0276,122.664 95.5,124.5C 96.9118,126.76 97.9118,129.093 98.5,131.5C 98.5,132.167 98.5,132.833 98.5,133.5C 97.2433,138.703 97.2433,144.036 98.5,149.5C 97.1667,154.167 97.1667,158.833 98.5,163.5C 119.5,163.5 140.5,163.5 161.5,163.5C 161.5,161.5 161.5,159.5 161.5,157.5C 162.266,159.684 162.933,162.018 163.5,164.5C 165.35,166.518 167.35,168.351 169.5,170C 168.288,172.423 166.954,174.756 165.5,177C 164.365,177.749 163.365,177.583 162.5,176.5C 164.092,174.775 163.758,173.775 161.5,173.5C 141.007,172.503 120.34,172.169 99.5,172.5C 99.5,172.167 99.5,171.833 99.5,171.5C 120.167,171.5 140.833,171.5 161.5,171.5C 161.795,169.265 161.461,167.265 160.5,165.5C 140.167,165.5 119.833,165.5 99.5,165.5C 99.1667,165.5 98.8333,165.5 98.5,165.5C 97.7171,167.343 97.0505,169.343 96.5,171.5C 97.3482,173.409 97.6816,175.409 97.5,177.5C 96.6236,177.631 95.9569,177.298 95.5,176.5C 95.4623,172.543 95.7956,168.71 96.5,165C 96.0245,163.237 95.3578,161.57 94.5,160C 66.502,159.5 38.502,159.333 10.5,159.5C 10.3333,112.499 10.5,65.4988 11,18.5C 12.8333,14 16,10.8333 20.5,9C 164.833,8.33333 309.167,8.33333 453.5,9C 458.573,10.4056 462.073,13.5723 464,18.5C 464.5,80.4991 464.667,142.499 464.5,204.5 Z"/></g>
<g><path style="opacity:1" fill="#2bd62f" d="M 382.5,197.5 C 382.833,197.5 383.167,197.5 383.5,197.5C 383.5,198.833 383.5,200.167 383.5,201.5C 403.833,201.5 424.167,201.5 444.5,201.5C 444.5,201.833 444.5,202.167 444.5,202.5C 423.833,202.5 403.167,202.5 382.5,202.5C 382.5,200.833 382.5,199.167 382.5,197.5 Z"/></g>
<g><path style="opacity:1" fill="#2cd531" d="M 311.5,197.5 C 311.833,197.5 312.167,197.5 312.5,197.5C 312.5,198.833 312.5,200.167 312.5,201.5C 332.833,201.5 353.167,201.5 373.5,201.5C 373.5,201.833 373.5,202.167 373.5,202.5C 352.833,202.5 332.167,202.5 311.5,202.5C 311.5,200.833 311.5,199.167 311.5,197.5 Z"/></g>
<g><path style="opacity:1" fill="#10f514" d="M 383.5,197.5 C 403.833,197.5 424.167,197.5 444.5,197.5C 444.5,198.833 444.5,200.167 444.5,201.5C 424.167,201.5 403.833,201.5 383.5,201.5C 383.5,200.167 383.5,198.833 383.5,197.5 Z"/></g>
<g><path style="opacity:1" fill="#10f515" d="M 312.5,197.5 C 332.833,197.5 353.167,197.5 373.5,197.5C 373.5,198.833 373.5,200.167 373.5,201.5C 353.167,201.5 332.833,201.5 312.5,201.5C 312.5,200.167 312.5,198.833 312.5,197.5 Z"/></g>
<g><path style="opacity:1" fill="#199d23" d="M 382.5,197.5 C 403.327,196.503 424.327,196.169 445.5,196.5C 445.5,198.5 445.5,200.5 445.5,202.5C 445.167,202.5 444.833,202.5 444.5,202.5C 444.5,202.167 444.5,201.833 444.5,201.5C 444.5,200.167 444.5,198.833 444.5,197.5C 424.167,197.5 403.833,197.5 383.5,197.5C 383.167,197.5 382.833,197.5 382.5,197.5 Z"/></g>
<g><path style="opacity:1" fill="#189e20" d="M 311.5,197.5 C 332.327,196.503 353.327,196.169 374.5,196.5C 374.795,198.735 374.461,200.735 373.5,202.5C 373.5,202.167 373.5,201.833 373.5,201.5C 373.5,200.167 373.5,198.833 373.5,197.5C 353.167,197.5 332.833,197.5 312.5,197.5C 312.167,197.5 311.833,197.5 311.5,197.5 Z"/></g>
<g><path style="opacity:1" fill="#2adb2c" d="M 382.5,189.5 C 382.833,189.5 383.167,189.5 383.5,189.5C 383.5,190.833 383.5,192.167 383.5,193.5C 403.833,193.5 424.167,193.5 444.5,193.5C 424.34,194.497 404.007,194.83 383.5,194.5C 382.549,193.081 382.216,191.415 382.5,189.5 Z"/></g>
<g><path style="opacity:1" fill="#2cda2d" d="M 311.5,189.5 C 311.833,189.5 312.167,189.5 312.5,189.5C 312.5,190.833 312.5,192.167 312.5,193.5C 332.833,193.5 353.167,193.5 373.5,193.5C 373.5,193.833 373.5,194.167 373.5,194.5C 352.833,194.5 332.167,194.5 311.5,194.5C 311.5,192.833 311.5,191.167 311.5,189.5 Z"/></g>
<g><path style="opacity:1" fill="#10f611" d="M 383.5,189.5 C 403.833,189.5 424.167,189.5 444.5,189.5C 444.5,190.833 444.5,192.167 444.5,193.5C 424.167,193.5 403.833,193.5 383.5,193.5C 383.5,192.167 383.5,190.833 383.5,189.5 Z"/></g>
<g><path style="opacity:1" fill="#10f612" d="M 312.5,189.5 C 332.833,189.5 353.167,189.5 373.5,189.5C 373.5,190.833 373.5,192.167 373.5,193.5C 353.167,193.5 332.833,193.5 312.5,193.5C 312.5,192.167 312.5,190.833 312.5,189.5 Z"/></g>
<g><path style="opacity:1" fill="#177e10" d="M 382.5,189.5 C 402.993,188.503 423.66,188.169 444.5,188.5C 445.468,190.607 445.802,192.941 445.5,195.5C 424.66,195.831 403.993,195.497 383.5,194.5C 404.007,194.83 424.34,194.497 444.5,193.5C 444.5,192.167 444.5,190.833 444.5,189.5C 424.167,189.5 403.833,189.5 383.5,189.5C 383.167,189.5 382.833,189.5 382.5,189.5 Z"/></g>
<g><path style="opacity:1" fill="#1f8f1c" d="M 311.5,189.5 C 331.993,188.503 352.66,188.169 373.5,188.5C 374.461,190.265 374.795,192.265 374.5,194.5C 374.167,194.5 373.833,194.5 373.5,194.5C 373.5,194.167 373.5,193.833 373.5,193.5C 373.5,192.167 373.5,190.833 373.5,189.5C 353.167,189.5 332.833,189.5 312.5,189.5C 312.167,189.5 311.833,189.5 311.5,189.5 Z"/></g>
<g><path style="opacity:1" fill="#247106" d="M 382.5,181.5 C 403.327,180.503 424.327,180.169 445.5,180.5C 445.802,183.059 445.468,185.393 444.5,187.5C 423.66,187.831 402.993,187.497 382.5,186.5C 403.167,186.5 423.833,186.5 444.5,186.5C 444.5,184.833 444.5,183.167 444.5,181.5C 423.833,181.5 403.167,181.5 382.5,181.5 Z"/></g>
<g><path style="opacity:1" fill="#066a01" d="M 373.5,181.5 C 373.833,181.5 374.167,181.5 374.5,181.5C 374.795,183.735 374.461,185.735 373.5,187.5C 352.66,187.831 331.993,187.497 311.5,186.5C 332.167,186.5 352.833,186.5 373.5,186.5C 373.5,184.833 373.5,183.167 373.5,181.5 Z"/></g>
<g><path style="opacity:1" fill="#66cf28" d="M 373.5,181.5 C 373.5,183.167 373.5,184.833 373.5,186.5C 352.833,186.5 332.167,186.5 311.5,186.5C 311.5,184.833 311.5,183.167 311.5,181.5C 332.167,180.167 352.833,180.167 373.5,181.5 Z"/></g>
<g><path style="opacity:1" fill="#65f716" d="M 382.5,181.5 C 403.167,181.5 423.833,181.5 444.5,181.5C 444.5,183.167 444.5,184.833 444.5,186.5C 423.833,186.5 403.167,186.5 382.5,186.5C 382.5,184.833 382.5,183.167 382.5,181.5 Z"/></g>
<g><path style="opacity:1" fill="#62fc06" d="M 312.5,182.5 C 332.5,182.5 352.5,182.5 372.5,182.5C 372.5,183.5 372.5,184.5 372.5,185.5C 352.5,185.5 332.5,185.5 312.5,185.5C 312.5,184.5 312.5,183.5 312.5,182.5 Z"/></g>
<g><path style="opacity:1" fill="#4c7000" d="M 444.5,173.5 C 444.833,173.5 445.167,173.5 445.5,173.5C 445.5,175.5 445.5,177.5 445.5,179.5C 424.66,179.831 403.993,179.497 383.5,178.5C 404.007,178.83 424.34,178.497 444.5,177.5C 444.5,176.167 444.5,174.833 444.5,173.5 Z"/></g>
<g><path style="opacity:1" fill="#cefa1c" d="M 383.5,173.5 C 402.14,175.324 421.14,176.157 440.5,176C 441.901,176.41 443.234,176.91 444.5,177.5C 424.34,178.497 404.007,178.83 383.5,178.5C 382.167,176.833 382.167,175.167 383.5,173.5 Z"/></g>
<g><path style="opacity:1" fill="#ebfd1e" d="M 383.5,173.5 C 403.833,173.5 424.167,173.5 444.5,173.5C 444.5,174.833 444.5,176.167 444.5,177.5C 443.234,176.91 441.901,176.41 440.5,176C 421.14,176.157 402.14,175.324 383.5,173.5 Z"/></g>
<g><path style="opacity:1" fill="#ebfc19" d="M 241.5,173.5 C 262.194,172.845 282.527,173.512 302.5,175.5C 282.144,175.227 261.811,175.56 241.5,176.5C 241.5,175.5 241.5,174.5 241.5,173.5 Z"/></g>
<g><path style="opacity:1" fill="#edfc19" d="M 99.5,173.5 C 119.833,173.5 140.167,173.5 160.5,173.5C 160.5,174.833 160.5,176.167 160.5,177.5C 150.561,176.191 140.394,175.524 130,175.5C 119.772,175.513 109.772,176.18 100,177.5C 99.51,176.207 99.3433,174.873 99.5,173.5 Z"/></g>
<g><path style="opacity:1" fill="#857701" d="M 373.5,165.5 C 374.461,167.265 374.795,169.265 374.5,171.5C 353.327,171.831 332.327,171.497 311.5,170.5C 332.167,170.5 352.833,170.5 373.5,170.5C 373.5,169.5 373.5,168.5 373.5,167.5C 373.5,166.833 373.5,166.167 373.5,165.5 Z"/></g>
<g><path style="opacity:1" fill="#837700" d="M 302.5,165.5 C 303.461,167.265 303.795,169.265 303.5,171.5C 282.327,171.831 261.327,171.497 240.5,170.5C 240.833,170.5 241.167,170.5 241.5,170.5C 262.194,171.155 282.527,170.488 302.5,168.5C 302.5,167.5 302.5,166.5 302.5,165.5 Z"/></g>
<g><path style="opacity:1" fill="#817700" d="M 160.5,165.5 C 161.461,167.265 161.795,169.265 161.5,171.5C 140.833,171.5 120.167,171.5 99.5,171.5C 98.8333,171.5 98.5,171.167 98.5,170.5C 119.167,170.5 139.833,170.5 160.5,170.5C 160.5,169.167 160.5,167.833 160.5,166.5C 160.5,166.167 160.5,165.833 160.5,165.5 Z"/></g>
<g><path style="opacity:1" fill="#f7d525" d="M 302.5,168.5 C 282.527,170.488 262.194,171.155 241.5,170.5C 241.281,169.325 241.614,168.325 242.5,167.5C 262.454,168.488 282.454,168.821 302.5,168.5 Z"/></g>
<g><path style="opacity:1" fill="#f6d528" d="M 98.5,165.5 C 98.8333,165.5 99.1667,165.5 99.5,165.5C 99.5,166.5 99.5,167.5 99.5,168.5C 120.066,169.137 140.4,168.47 160.5,166.5C 160.5,167.833 160.5,169.167 160.5,170.5C 139.833,170.5 119.167,170.5 98.5,170.5C 98.5,168.833 98.5,167.167 98.5,165.5 Z"/></g>
<g><path style="opacity:1" fill="#131305" d="M 445.5,173.5 C 445.167,173.5 444.833,173.5 444.5,173.5C 424.167,173.5 403.833,173.5 383.5,173.5C 382.167,175.167 382.167,176.833 383.5,178.5C 403.993,179.497 424.66,179.831 445.5,179.5C 445.5,179.833 445.5,180.167 445.5,180.5C 424.327,180.169 403.327,180.503 382.5,181.5C 381.549,182.919 381.216,184.585 381.5,186.5C 380.539,184.735 380.205,182.735 380.5,180.5C 378.517,180.157 377.183,180.824 376.5,182.5C 375.833,182.167 375.167,181.833 374.5,181.5C 374.167,181.5 373.833,181.5 373.5,181.5C 352.833,180.167 332.167,180.167 311.5,181.5C 311.167,181.5 310.833,181.5 310.5,181.5C 310.728,177.61 310.394,173.776 309.5,170C 309.639,168.699 310.305,167.866 311.5,167.5C 311.5,168.5 311.5,169.5 311.5,170.5C 332.327,171.497 353.327,171.831 374.5,171.5C 374.795,169.265 374.461,167.265 373.5,165.5C 352.833,165.5 332.167,165.5 311.5,165.5C 332.167,164.833 352.833,164.167 373.5,163.5C 373.833,163.5 374.167,163.5 374.5,163.5C 376.142,161.919 378.142,161.253 380.5,161.5C 381.244,164.95 379.91,166.616 376.5,166.5C 376.5,167.5 376.5,168.5 376.5,169.5C 378.39,169.297 379.89,169.963 381,171.5C 381.381,168.022 382.548,164.855 384.5,162C 400.163,161.5 415.83,161.333 431.5,161.5C 431.5,162.833 431.5,164.167 431.5,165.5C 415.819,165.167 400.152,165.501 384.5,166.5C 400.534,167.181 416.534,167.848 432.5,168.5C 434.62,167.597 434.954,166.263 433.5,164.5C 442.026,163.206 442.692,165.04 435.5,170C 436.5,170.167 437.5,170.333 438.5,170.5C 441.476,168.54 444.81,167.206 448.5,166.5C 447.801,168.995 446.801,171.328 445.5,173.5 Z"/></g>
<g><path style="opacity:1" fill="#cefa1c" d="M 311.5,175.5 C 332.291,175.55 352.958,175.55 373.5,175.5C 373.5,176.5 373.5,177.5 373.5,178.5C 352.833,178.5 332.167,178.5 311.5,178.5C 311.5,177.5 311.5,176.5 311.5,175.5 Z"/></g>
<g><path style="opacity:1" fill="#edfc1a" d="M 311.5,173.5 C 332.527,172.845 353.194,173.512 373.5,175.5C 352.958,175.55 332.291,175.55 311.5,175.5C 311.5,174.833 311.5,174.167 311.5,173.5 Z"/></g>
<g><path style="opacity:1" fill="#5f6c04" d="M 311.5,173.5 C 332.327,172.503 353.327,172.169 374.5,172.5C 374.5,174.833 374.5,177.167 374.5,179.5C 353.327,179.831 332.327,179.497 311.5,178.5C 332.167,178.5 352.833,178.5 373.5,178.5C 373.5,177.5 373.5,176.5 373.5,175.5C 353.194,173.512 332.527,172.845 311.5,173.5 Z"/></g>
<g><path style="opacity:1" fill="#f6d525" d="M 311.5,167.5 C 332.17,168.806 352.837,168.806 373.5,167.5C 373.5,168.5 373.5,169.5 373.5,170.5C 352.833,170.5 332.167,170.5 311.5,170.5C 311.5,169.5 311.5,168.5 311.5,167.5 Z"/></g>
<g><path style="opacity:1" fill="#f9ad10" d="M 311.5,165.5 C 332.167,165.5 352.833,165.5 373.5,165.5C 373.5,166.167 373.5,166.833 373.5,167.5C 352.837,168.806 332.17,168.806 311.5,167.5C 311.5,166.833 311.5,166.167 311.5,165.5 Z"/></g>
<g><path style="opacity:1" fill="#f8ae0f" d="M 302.5,165.5 C 302.5,166.5 302.5,167.5 302.5,168.5C 282.454,168.821 262.454,168.488 242.5,167.5C 241.614,168.325 241.281,169.325 241.5,170.5C 241.167,170.5 240.833,170.5 240.5,170.5C 240.5,168.833 240.5,167.167 240.5,165.5C 261.167,165.5 281.833,165.5 302.5,165.5 Z"/></g>
<g><path style="opacity:1" fill="#faad0f" d="M 99.5,165.5 C 119.833,165.5 140.167,165.5 160.5,165.5C 160.5,165.833 160.5,166.167 160.5,166.5C 140.4,168.47 120.066,169.137 99.5,168.5C 99.5,167.5 99.5,166.5 99.5,165.5 Z"/></g>
<g><path style="opacity:1" fill="#7f3507" d="M 373.5,157.5 C 374.461,159.265 374.795,161.265 374.5,163.5C 374.167,163.5 373.833,163.5 373.5,163.5C 352.833,163.5 332.167,163.5 311.5,163.5C 311.5,161.167 311.5,158.833 311.5,156.5C 332.34,156.169 353.007,156.503 373.5,157.5 Z"/></g>
<g><path style="opacity:1" fill="#984801" d="M 302.5,157.5 C 302.833,157.5 303.167,157.5 303.5,157.5C 303.5,159.5 303.5,161.5 303.5,163.5C 282.327,163.831 261.327,163.497 240.5,162.5C 240.833,162.5 241.167,162.5 241.5,162.5C 261.833,162.5 282.167,162.5 302.5,162.5C 302.5,161.167 302.5,159.833 302.5,158.5C 302.5,158.167 302.5,157.833 302.5,157.5 Z"/></g>
<g><path style="opacity:1" fill="#984904" d="M 99.5,157.5 C 99.5,157.833 99.5,158.167 99.5,158.5C 99.5,158.833 99.5,159.167 99.5,159.5C 99.5,160.5 99.5,161.5 99.5,162.5C 119.833,162.5 140.167,162.5 160.5,162.5C 160.5,161.5 160.5,160.5 160.5,159.5C 160.5,158.833 160.5,158.167 160.5,157.5C 160.833,157.5 161.167,157.5 161.5,157.5C 161.5,159.5 161.5,161.5 161.5,163.5C 140.5,163.5 119.5,163.5 98.5,163.5C 98.2053,161.265 98.5386,159.265 99.5,157.5 Z"/></g>
<g><path style="opacity:1" fill="#ee7819" d="M 372.5,159.5 C 372.833,159.5 373.167,159.5 373.5,159.5C 373.5,160.5 373.5,161.5 373.5,162.5C 352.993,162.83 332.66,162.497 312.5,161.5C 332.861,162.155 352.861,161.488 372.5,159.5 Z"/></g>
<g><path style="opacity:1" fill="#ee781a" d="M 99.5,159.5 C 109.439,160.809 119.606,161.476 130,161.5C 140.19,161.499 150.023,160.832 159.5,159.5C 159.833,159.5 160.167,159.5 160.5,159.5C 160.5,160.5 160.5,161.5 160.5,162.5C 140.167,162.5 119.833,162.5 99.5,162.5C 99.5,161.5 99.5,160.5 99.5,159.5 Z"/></g>
<g><path style="opacity:1" fill="#fd5001" d="M 372.5,159.5 C 352.861,161.488 332.861,162.155 312.5,161.5C 312.5,160.833 312.5,160.167 312.5,159.5C 332.628,158.185 352.628,158.185 372.5,159.5 Z"/></g>
<g><path style="opacity:1" fill="#f95a06" d="M 302.5,158.5 C 302.5,159.833 302.5,161.167 302.5,162.5C 282.167,162.5 261.833,162.5 241.5,162.5C 241.5,161.167 241.5,159.833 241.5,158.5C 261.833,158.5 282.167,158.5 302.5,158.5 Z"/></g>
<g><path style="opacity:1" fill="#fd4f03" d="M 99.5,159.5 C 99.5,159.167 99.5,158.833 99.5,158.5C 119.674,158.17 139.674,158.503 159.5,159.5C 150.023,160.832 140.19,161.499 130,161.5C 119.606,161.476 109.439,160.809 99.5,159.5 Z"/></g>
<g><path style="opacity:1" fill="#da4415" d="M 373.5,157.5 C 373.5,158.167 373.5,158.833 373.5,159.5C 373.167,159.5 372.833,159.5 372.5,159.5C 352.628,158.185 332.628,158.185 312.5,159.5C 312.611,158.883 312.944,158.383 313.5,158C 333.497,157.5 353.497,157.333 373.5,157.5 Z"/></g>
<g><path style="opacity:1" fill="#d94619" d="M 241.5,157.5 C 261.833,157.5 282.167,157.5 302.5,157.5C 302.5,157.833 302.5,158.167 302.5,158.5C 282.167,158.5 261.833,158.5 241.5,158.5C 241.5,159.833 241.5,161.167 241.5,162.5C 241.167,162.5 240.833,162.5 240.5,162.5C 240.216,160.585 240.549,158.919 241.5,157.5 Z"/></g>
<g><path style="opacity:1" fill="#dc4418" d="M 99.5,158.5 C 99.5,158.167 99.5,157.833 99.5,157.5C 119.833,157.5 140.167,157.5 160.5,157.5C 160.5,158.167 160.5,158.833 160.5,159.5C 160.167,159.5 159.833,159.5 159.5,159.5C 139.674,158.503 119.674,158.17 99.5,158.5 Z"/></g>
<g><path style="opacity:1" fill="#3d0400" d="M 241.5,155.5 C 262.167,155.5 282.833,155.5 303.5,155.5C 303.5,156.167 303.5,156.833 303.5,157.5C 303.167,157.5 302.833,157.5 302.5,157.5C 282.167,157.5 261.833,157.5 241.5,157.5C 241.5,156.833 241.5,156.167 241.5,155.5 Z"/></g>
<g><path style="opacity:1" fill="#3b0600" d="M 98.5,149.5 C 98.5,151.5 98.5,153.5 98.5,155.5C 119.5,155.5 140.5,155.5 161.5,155.5C 161.5,156.167 161.5,156.833 161.5,157.5C 161.167,157.5 160.833,157.5 160.5,157.5C 140.167,157.5 119.833,157.5 99.5,157.5C 98.5386,159.265 98.2053,161.265 98.5,163.5C 97.1667,158.833 97.1667,154.167 98.5,149.5 Z"/></g>
<g><path style="opacity:1" fill="#b40e07" d="M 241.5,149.5 C 261.833,149.5 282.167,149.5 302.5,149.5C 303.461,151.265 303.795,153.265 303.5,155.5C 282.833,155.5 262.167,155.5 241.5,155.5C 240.167,153.5 240.167,151.5 241.5,149.5 Z"/></g>
<g><path style="opacity:1" fill="#b0100a" d="M 98.5,149.5 C 119.5,149.5 140.5,149.5 161.5,149.5C 161.5,151.5 161.5,153.5 161.5,155.5C 140.5,155.5 119.5,155.5 98.5,155.5C 98.5,153.5 98.5,151.5 98.5,149.5 Z"/></g>
<g><path style="opacity:1" fill="#f30604" d="M 242.5,150.5 C 262.5,150.5 282.5,150.5 302.5,150.5C 302.5,151.833 302.5,153.167 302.5,154.5C 282.831,154.667 263.164,154.5 243.5,154C 242.663,152.989 242.33,151.822 242.5,150.5 Z"/></g>
<g><path style="opacity:1" fill="#f40505" d="M 99.5,150.5 C 119.836,150.333 140.169,150.5 160.5,151C 159.663,152.011 159.33,153.178 159.5,154.5C 139.5,154.5 119.5,154.5 99.5,154.5C 99.5,153.167 99.5,151.833 99.5,150.5 Z"/></g>
<g><path style="opacity:1" fill="#350000" d="M 241.5,147.5 C 261.833,147.5 282.167,147.5 302.5,147.5C 302.5,148.167 302.5,148.833 302.5,149.5C 282.167,149.5 261.833,149.5 241.5,149.5C 241.5,148.833 241.5,148.167 241.5,147.5 Z"/></g>
<g><path style="opacity:1" fill="#330000" d="M 98.5,133.5 C 98.2155,135.415 98.5489,137.081 99.5,138.5C 119.66,139.497 139.993,139.83 160.5,139.5C 160.5,140.167 160.5,140.833 160.5,141.5C 139.833,141.5 119.167,141.5 98.5,141.5C 98.2155,143.415 98.5489,145.081 99.5,146.5C 120.069,147.826 140.736,147.826 161.5,146.5C 161.5,147.5 161.5,148.5 161.5,149.5C 140.5,149.5 119.5,149.5 98.5,149.5C 97.2433,144.036 97.2433,138.703 98.5,133.5 Z"/></g>
<g><path style="opacity:1" fill="#b70b04" d="M 241.5,141.5 C 261.833,141.5 282.167,141.5 302.5,141.5C 303.833,143.5 303.833,145.5 302.5,147.5C 282.167,147.5 261.833,147.5 241.5,147.5C 240.167,145.5 240.167,143.5 241.5,141.5 Z"/></g>
<g><path style="opacity:1" fill="#b80b05" d="M 160.5,141.5 C 161.451,142.919 161.784,144.585 161.5,146.5C 140.736,147.826 120.069,147.826 99.5,146.5C 98.5489,145.081 98.2155,143.415 98.5,141.5C 119.167,141.5 139.833,141.5 160.5,141.5 Z"/></g>
<g><path style="opacity:1" fill="#f40303" d="M 241.5,142.5 C 261.833,142.5 282.167,142.5 302.5,142.5C 302.5,143.833 302.5,145.167 302.5,146.5C 282.167,146.5 261.833,146.5 241.5,146.5C 241.5,145.167 241.5,143.833 241.5,142.5 Z"/></g>
<g><path style="opacity:1" fill="#f60302" d="M 99.5,146.5 C 99.5,145.167 99.5,143.833 99.5,142.5C 119.5,142.5 139.5,142.5 159.5,142.5C 159.5,143.833 159.5,145.167 159.5,146.5C 139.5,146.5 119.5,146.5 99.5,146.5 Z"/></g>
<g><path style="opacity:1" fill="#350000" d="M 241.5,139.5 C 261.833,139.5 282.167,139.5 302.5,139.5C 302.5,140.167 302.5,140.833 302.5,141.5C 282.167,141.5 261.833,141.5 241.5,141.5C 241.5,140.833 241.5,140.167 241.5,139.5 Z"/></g>
<g><path style="opacity:1" fill="#b90b0a" d="M 302.5,139.5 C 282.167,139.5 261.833,139.5 241.5,139.5C 239.692,138.082 239.025,136.082 239.5,133.5C 260.833,133.5 282.167,133.5 303.5,133.5C 303.795,135.735 303.461,137.735 302.5,139.5 Z"/></g>
<g><path style="opacity:1" fill="#bf0c0d" d="M 98.5,133.5 C 119.167,133.5 139.833,133.5 160.5,133.5C 161.833,135.5 161.833,137.5 160.5,139.5C 139.993,139.83 119.66,139.497 99.5,138.5C 98.5489,137.081 98.2155,135.415 98.5,133.5 Z"/></g>
<g><path style="opacity:1" fill="#f40402" d="M 241.5,134.5 C 261.833,134.5 282.167,134.5 302.5,134.5C 302.5,135.833 302.5,137.167 302.5,138.5C 282.167,138.5 261.833,138.5 241.5,138.5C 241.5,137.167 241.5,135.833 241.5,134.5 Z"/></g>
<g><path style="opacity:1" fill="#f50301" d="M 99.5,138.5 C 99.5,137.167 99.5,135.833 99.5,134.5C 119.5,134.5 139.5,134.5 159.5,134.5C 159.5,135.833 159.5,137.167 159.5,138.5C 139.5,138.5 119.5,138.5 99.5,138.5 Z"/></g>
<g><path style="opacity:1" fill="#320100" d="M 98.5,131.5 C 119.167,131.5 139.833,131.5 160.5,131.5C 160.5,132.167 160.5,132.833 160.5,133.5C 139.833,133.5 119.167,133.5 98.5,133.5C 98.5,132.833 98.5,132.167 98.5,131.5 Z"/></g>
<g><path style="opacity:1" fill="#c00a0d" d="M 160.5,125.5 C 161.833,127.5 161.833,129.5 160.5,131.5C 139.833,131.5 119.167,131.5 98.5,131.5C 98.5,129.5 98.5,127.5 98.5,125.5C 119.167,125.5 139.833,125.5 160.5,125.5 Z"/></g>
<g><path style="opacity:1" fill="#f50407" d="M 99.5,126.5 C 119.5,126.5 139.5,126.5 159.5,126.5C 159.5,127.833 159.5,129.167 159.5,130.5C 139.5,130.5 119.5,130.5 99.5,130.5C 99.5,129.167 99.5,127.833 99.5,126.5 Z"/></g>
<g><path style="opacity:1" fill="#390100" d="M 97.5,119.5 C 97.5,120.833 97.5,122.167 97.5,123.5C 98.5,123.5 99.5,123.5 100.5,123.5C 120.5,123.5 140.5,123.5 160.5,123.5C 160.5,124.167 160.5,124.833 160.5,125.5C 139.833,125.5 119.167,125.5 98.5,125.5C 98.5,127.5 98.5,129.5 98.5,131.5C 97.9118,129.093 96.9118,126.76 95.5,124.5C 96.0276,122.664 96.6942,120.997 97.5,119.5 Z"/></g>
<g><path style="opacity:1" fill="#990209" d="M 98.5,117.5 C 119.5,117.5 140.5,117.5 161.5,117.5C 161.795,119.735 161.461,121.735 160.5,123.5C 160.5,121.833 160.5,120.167 160.5,118.5C 140.167,118.5 119.833,118.5 99.5,118.5C 99.2322,120.099 99.5655,121.432 100.5,122.5C 100.5,122.833 100.5,123.167 100.5,123.5C 99.5,123.5 98.5,123.5 97.5,123.5C 97.5,122.167 97.5,120.833 97.5,119.5C 97.8333,118.833 98.1667,118.167 98.5,117.5 Z"/></g>
<g><path style="opacity:1" fill="#d91012" d="M 160.5,123.5 C 140.5,123.5 120.5,123.5 100.5,123.5C 100.5,123.167 100.5,122.833 100.5,122.5C 99.5655,121.432 99.2322,120.099 99.5,118.5C 119.833,118.5 140.167,118.5 160.5,118.5C 160.5,120.167 160.5,121.833 160.5,123.5 Z"/></g>
<g><path style="opacity:1" fill="#fb0101" d="M 100.5,122.5 C 100.5,121.5 100.5,120.5 100.5,119.5C 120.167,119.5 139.833,119.5 159.5,119.5C 159.5,120.5 159.5,121.5 159.5,122.5C 139.833,122.5 120.167,122.5 100.5,122.5 Z"/></g>
<g><path style="opacity:1" fill="#3d0000" d="M 98.5,115.5 C 99.1667,115.5 99.8333,115.5 100.5,115.5C 120.5,115.5 140.5,115.5 160.5,115.5C 160.833,115.5 161.167,115.5 161.5,115.5C 161.5,116.167 161.5,116.833 161.5,117.5C 140.5,117.5 119.5,117.5 98.5,117.5C 98.5,116.833 98.5,116.167 98.5,115.5 Z"/></g>
<g><path style="opacity:1" fill="#8c0204" d="M 161.5,115.5 C 161.167,115.5 160.833,115.5 160.5,115.5C 160.5,113.833 160.5,112.167 160.5,110.5C 140.167,110.5 119.833,110.5 99.5,110.5C 99.2322,112.099 99.5655,113.432 100.5,114.5C 100.5,114.833 100.5,115.167 100.5,115.5C 99.8333,115.5 99.1667,115.5 98.5,115.5C 97.193,113.777 97.193,111.943 98.5,110C 119.497,109.5 140.497,109.333 161.5,109.5C 161.5,111.5 161.5,113.5 161.5,115.5 Z"/></g>
<g><path style="opacity:1" fill="#d7100c" d="M 160.5,115.5 C 140.5,115.5 120.5,115.5 100.5,115.5C 100.5,115.167 100.5,114.833 100.5,114.5C 99.5655,113.432 99.2322,112.099 99.5,110.5C 119.833,110.5 140.167,110.5 160.5,110.5C 160.5,112.167 160.5,113.833 160.5,115.5 Z"/></g>
<g><path style="opacity:1" fill="#f80203" d="M 100.5,114.5 C 100.5,113.5 100.5,112.5 100.5,111.5C 119.836,111.333 139.17,111.5 158.5,112C 158.957,112.414 159.291,112.914 159.5,113.5C 139.845,114.5 120.178,114.833 100.5,114.5 Z"/></g>
<g><path style="opacity:1" fill="#000101" d="M 25.5,230.5 C 25.2291,232.38 25.8958,233.713 27.5,234.5C 27.5,235.167 27.5,235.833 27.5,236.5C 27.5,238.167 27.5,239.833 27.5,241.5C 28.8333,242.5 28.8333,243.5 27.5,244.5C 27.5,246.167 27.5,247.833 27.5,249.5C 28.8333,250.5 28.8333,251.5 27.5,252.5C 27.5,254.167 27.5,255.833 27.5,257.5C 27.5,258.167 27.5,258.833 27.5,259.5C 27.5,261.5 27.5,263.5 27.5,265.5C 51.01,266.754 74.6766,266.754 98.5,265.5C 99.1667,265.5 99.8333,265.5 100.5,265.5C 103.5,266.167 106.5,266.833 109.5,267.5C 105.833,267.5 102.167,267.5 98.5,267.5C 98.5,269.5 98.5,271.5 98.5,273.5C 98.5,274.167 98.5,274.833 98.5,275.5C 98.5,277.5 98.5,279.5 98.5,281.5C 119.5,281.5 140.5,281.5 161.5,281.5C 161.5,279.5 161.5,277.5 161.5,275.5C 162.314,273.369 162.814,271.036 163,268.5C 164.919,267.926 166.753,267.593 168.5,267.5C 168.62,269.734 168.287,271.901 167.5,274C 167.639,275.301 168.305,276.134 169.5,276.5C 169.5,278.167 169.5,279.833 169.5,281.5C 190.169,281.667 210.836,281.5 231.5,281C 232.406,279.301 232.739,277.467 232.5,275.5C 213.5,275.5 194.5,275.5 175.5,275.5C 175.5,274.833 175.5,274.167 175.5,273.5C 194.5,273.5 213.5,273.5 232.5,273.5C 232.5,271.5 232.5,269.5 232.5,267.5C 213.5,267.5 194.5,267.5 175.5,267.5C 175.5,266.833 175.5,266.167 175.5,265.5C 194.5,265.5 213.5,265.5 232.5,265.5C 232.5,263.5 232.5,261.5 232.5,259.5C 213.5,259.5 194.5,259.5 175.5,259.5C 175.5,258.833 175.5,258.167 175.5,257.5C 194.167,257.5 212.833,257.5 231.5,257.5C 231.5,255.833 231.5,254.167 231.5,252.5C 210.833,252.5 190.167,252.5 169.5,252.5C 189.996,251.668 210.663,251.168 231.5,251C 228.305,250.819 225.305,250.319 222.5,249.5C 225.5,249.5 228.5,249.5 231.5,249.5C 231.5,247.833 231.5,246.167 231.5,244.5C 231.5,243.5 231.5,242.5 231.5,241.5C 231.5,239.833 231.5,238.167 231.5,236.5C 232.516,234.265 233.849,234.265 235.5,236.5C 237.177,235.813 238.844,235.146 240.5,234.5C 240.833,234.5 241.167,234.5 241.5,234.5C 241.5,234.833 241.5,235.167 241.5,235.5C 240.539,237.265 240.205,239.265 240.5,241.5C 240.5,242.5 240.5,243.5 240.5,244.5C 240.5,246.167 240.5,247.833 240.5,249.5C 240.5,250.167 240.5,250.833 240.5,251.5C 240.5,253.5 240.5,255.5 240.5,257.5C 261.5,257.5 282.5,257.5 303.5,257.5C 303.5,255.5 303.5,253.5 303.5,251.5C 304.105,246.588 304.105,241.588 303.5,236.5C 306.279,236.721 308.946,236.388 311.5,235.5C 311.5,237.5 311.5,239.5 311.5,241.5C 329.996,242.332 348.662,242.832 367.5,243C 351.328,243.169 335.328,243.669 319.5,244.5C 316.833,244.5 314.167,244.5 311.5,244.5C 311.5,246.167 311.5,247.833 311.5,249.5C 329.996,250.332 348.662,250.832 367.5,251C 351.328,251.169 335.328,251.669 319.5,252.5C 316.833,252.5 314.167,252.5 311.5,252.5C 311.5,254.167 311.5,255.833 311.5,257.5C 332.5,257.5 353.5,257.5 374.5,257.5C 374.5,255.833 374.5,254.167 374.5,252.5C 374.5,247.167 374.5,241.833 374.5,236.5C 376.144,236.714 377.644,236.38 379,235.5C 380.742,238.377 381.909,241.377 382.5,244.5C 382.5,246.167 382.5,247.833 382.5,249.5C 403.167,249.5 423.833,249.5 444.5,249.5C 445.657,246.974 445.657,244.307 444.5,241.5C 445.434,240.432 445.768,239.099 445.5,237.5C 445.842,236.662 446.508,236.328 447.5,236.5C 453.167,236.5 458.833,236.5 464.5,236.5C 464.667,308.501 464.5,380.501 464,452.5C 462.192,456.974 459.026,460.141 454.5,462C 309.833,462.667 165.167,462.667 20.5,462C 15.9743,460.141 12.8077,456.974 11,452.5C 10.5,380.167 10.3333,307.834 10.5,235.5C 13.0379,235.507 15.5379,235.841 18,236.5C 20.3554,234.371 22.8554,232.371 25.5,230.5 Z"/></g>
<g><path style="opacity:1" fill="#002505" d="M 27.5,234.5 C 48.1667,234.5 68.8333,234.5 89.5,234.5C 69.5,235.167 49.5,235.833 29.5,236.5C 28.8333,236.5 28.1667,236.5 27.5,236.5C 27.5,235.833 27.5,235.167 27.5,234.5 Z"/></g>
<g><path style="opacity:1" fill="#043e4a" d="M 170.5,235.5 C 190.867,235.202 211.2,235.535 231.5,236.5C 231.5,238.167 231.5,239.833 231.5,241.5C 210.66,241.831 189.993,241.497 169.5,240.5C 169.366,238.708 169.699,237.042 170.5,235.5 Z"/></g>
<g><path style="opacity:1" fill="#053e4a" d="M 311.5,235.5 C 330.5,235.5 349.5,235.5 368.5,235.5C 369.919,236.451 371.585,236.784 373.5,236.5C 373.5,238.167 373.5,239.833 373.5,241.5C 352.833,241.5 332.167,241.5 311.5,241.5C 311.5,239.5 311.5,237.5 311.5,235.5 Z"/></g>
<g><path style="opacity:1" fill="#044151" d="M 27.5,236.5 C 28.1667,236.5 28.8333,236.5 29.5,236.5C 49.5,236.5 69.5,236.5 89.5,236.5C 89.5,238.167 89.5,239.833 89.5,241.5C 68.8333,241.5 48.1667,241.5 27.5,241.5C 27.5,239.833 27.5,238.167 27.5,236.5 Z"/></g>
<g><path style="opacity:1" fill="#043f4d" d="M 381.5,233.5 C 381.833,233.5 382.167,233.5 382.5,233.5C 382.5,234.167 382.833,234.5 383.5,234.5C 401.353,235.192 419.353,235.859 437.5,236.5C 438.833,236.167 440.167,235.833 441.5,235.5C 442.867,236.225 444.2,236.892 445.5,237.5C 445.768,239.099 445.434,240.432 444.5,241.5C 423.833,241.5 403.167,241.5 382.5,241.5C 382.599,238.763 382.265,236.096 381.5,233.5 Z"/></g>
<g><path style="opacity:1" fill="#043f4d" d="M 159.5,235.5 C 161.081,237.142 161.747,239.142 161.5,241.5C 140.5,241.5 119.5,241.5 98.5,241.5C 98.5,240.167 98.5,238.833 98.5,237.5C 98.5,237.167 98.5,236.833 98.5,236.5C 118.69,235.65 139.024,235.317 159.5,235.5 Z"/></g>
<g><path style="opacity:1" fill="#05414f" d="M 241.5,235.5 C 245.34,235.274 249.34,235.607 253.5,236.5C 269.833,236.5 286.167,236.5 302.5,236.5C 302.5,238.167 302.5,239.833 302.5,241.5C 281.833,241.5 261.167,241.5 240.5,241.5C 240.205,239.265 240.539,237.265 241.5,235.5 Z"/></g>
<g><path style="opacity:1" fill="#04111c" d="M 169.5,240.5 C 189.993,241.497 210.66,241.831 231.5,241.5C 231.5,242.5 231.5,243.5 231.5,244.5C 210.833,244.5 190.167,244.5 169.5,244.5C 169.5,246.167 169.5,247.833 169.5,249.5C 187.167,249.5 204.833,249.5 222.5,249.5C 225.305,250.319 228.305,250.819 231.5,251C 210.663,251.168 189.996,251.668 169.5,252.5C 169.5,254.167 169.5,255.833 169.5,257.5C 171.5,257.5 173.5,257.5 175.5,257.5C 175.5,258.167 175.5,258.833 175.5,259.5C 173.5,259.5 171.5,259.5 169.5,259.5C 169.5,261.5 169.5,263.5 169.5,265.5C 171.5,265.5 173.5,265.5 175.5,265.5C 175.5,266.167 175.5,266.833 175.5,267.5C 173.5,267.5 171.5,267.5 169.5,267.5C 169.5,269.5 169.5,271.5 169.5,273.5C 171.5,273.5 173.5,273.5 175.5,273.5C 175.5,274.167 175.5,274.833 175.5,275.5C 173.265,275.205 171.265,275.539 169.5,276.5C 168.305,276.134 167.639,275.301 167.5,274C 168.287,271.901 168.62,269.734 168.5,267.5C 169.006,263.993 168.34,260.826 166.5,258C 168.115,252.272 169.115,246.439 169.5,240.5 Z"/></g>
<g><path style="opacity:1" fill="#05121b" d="M 302.5,236.5 C 302.833,236.5 303.167,236.5 303.5,236.5C 304.105,241.588 304.105,246.588 303.5,251.5C 282.5,251.5 261.5,251.5 240.5,251.5C 240.5,250.833 240.5,250.167 240.5,249.5C 261.167,249.5 281.833,249.5 302.5,249.5C 302.5,247.833 302.5,246.167 302.5,244.5C 281.833,244.5 261.167,244.5 240.5,244.5C 240.5,243.5 240.5,242.5 240.5,241.5C 261.167,241.5 281.833,241.5 302.5,241.5C 302.5,239.833 302.5,238.167 302.5,236.5 Z"/></g>
<g><path style="opacity:1" fill="#05161e" d="M 381.5,186.5 C 381.5,195.5 381.5,204.5 381.5,213.5C 381.5,220.167 381.5,226.833 381.5,233.5C 382.265,236.096 382.599,238.763 382.5,241.5C 403.167,241.5 423.833,241.5 444.5,241.5C 445.657,244.307 445.657,246.974 444.5,249.5C 444.5,247.833 444.5,246.167 444.5,244.5C 423.833,244.5 403.167,244.5 382.5,244.5C 381.909,241.377 380.742,238.377 379,235.5C 377.644,236.38 376.144,236.714 374.5,236.5C 374.5,241.833 374.5,247.167 374.5,252.5C 356.167,252.5 337.833,252.5 319.5,252.5C 335.328,251.669 351.328,251.169 367.5,251C 348.662,250.832 329.996,250.332 311.5,249.5C 332.167,249.5 352.833,249.5 373.5,249.5C 373.5,247.833 373.5,246.167 373.5,244.5C 355.5,244.5 337.5,244.5 319.5,244.5C 335.328,243.669 351.328,243.169 367.5,243C 348.662,242.832 329.996,242.332 311.5,241.5C 332.167,241.5 352.833,241.5 373.5,241.5C 373.5,239.833 373.5,238.167 373.5,236.5C 371.585,236.784 369.919,236.451 368.5,235.5C 370.792,235.756 372.959,235.423 375,234.5C 375.498,231.183 375.665,227.85 375.5,224.5C 376.167,218.321 376.833,211.988 377.5,205.5C 378.287,204.758 378.953,203.925 379.5,203C 377.422,201.514 376.089,199.514 375.5,197C 375.853,193.055 377.187,189.555 379.5,186.5C 377.712,185.717 376.712,184.384 376.5,182.5C 377.183,180.824 378.517,180.157 380.5,180.5C 380.205,182.735 380.539,184.735 381.5,186.5 Z"/></g>
<g><path style="opacity:1" fill="#021e27" d="M 27.5,241.5 C 48.1667,241.5 68.8333,241.5 89.5,241.5C 70.3377,242.332 51.0043,242.832 31.5,243C 51.0043,243.168 70.3377,243.668 89.5,244.5C 68.8333,244.5 48.1667,244.5 27.5,244.5C 28.8333,243.5 28.8333,242.5 27.5,241.5 Z"/></g>
<g><path style="opacity:1" fill="#04424f" d="M 240.5,244.5 C 261.167,244.5 281.833,244.5 302.5,244.5C 302.5,246.167 302.5,247.833 302.5,249.5C 281.833,249.5 261.167,249.5 240.5,249.5C 240.5,247.833 240.5,246.167 240.5,244.5 Z"/></g>
<g><path style="opacity:1" fill="#04414f" d="M 27.5,244.5 C 48.1667,244.5 68.8333,244.5 89.5,244.5C 90.3007,246.042 90.634,247.708 90.5,249.5C 69.5,249.5 48.5,249.5 27.5,249.5C 27.5,247.833 27.5,246.167 27.5,244.5 Z"/></g>
<g><path style="opacity:1" fill="#044250" d="M 231.5,244.5 C 231.5,246.167 231.5,247.833 231.5,249.5C 228.5,249.5 225.5,249.5 222.5,249.5C 204.833,249.5 187.167,249.5 169.5,249.5C 169.5,247.833 169.5,246.167 169.5,244.5C 190.167,244.5 210.833,244.5 231.5,244.5 Z"/></g>
<g><path style="opacity:1" fill="#03434f" d="M 319.5,244.5 C 337.5,244.5 355.5,244.5 373.5,244.5C 373.5,246.167 373.5,247.833 373.5,249.5C 352.833,249.5 332.167,249.5 311.5,249.5C 311.5,247.833 311.5,246.167 311.5,244.5C 314.167,244.5 316.833,244.5 319.5,244.5 Z"/></g>
<g><path style="opacity:1" fill="#06424e" d="M 382.5,244.5 C 403.167,244.5 423.833,244.5 444.5,244.5C 444.5,246.167 444.5,247.833 444.5,249.5C 423.833,249.5 403.167,249.5 382.5,249.5C 382.5,247.833 382.5,246.167 382.5,244.5 Z"/></g>
<g><path style="opacity:1" fill="#043c47" d="M 27.5,257.5 C 27.5,255.833 27.5,254.167 27.5,252.5C 48.1399,251.546 68.8066,251.213 89.5,251.5C 89.5,253.5 89.5,255.5 89.5,257.5C 68.8333,257.5 48.1667,257.5 27.5,257.5 Z"/></g>
<g><path style="opacity:1" fill="#033f4c" d="M 240.5,251.5 C 261.5,251.5 282.5,251.5 303.5,251.5C 303.5,253.5 303.5,255.5 303.5,257.5C 282.5,257.5 261.5,257.5 240.5,257.5C 240.5,255.5 240.5,253.5 240.5,251.5 Z"/></g>
<g><path style="opacity:1" fill="#05414e" d="M 169.5,252.5 C 190.167,252.5 210.833,252.5 231.5,252.5C 231.5,254.167 231.5,255.833 231.5,257.5C 212.833,257.5 194.167,257.5 175.5,257.5C 173.5,257.5 171.5,257.5 169.5,257.5C 169.5,255.833 169.5,254.167 169.5,252.5 Z"/></g>
<g><path style="opacity:1" fill="#06404d" d="M 319.5,252.5 C 337.833,252.5 356.167,252.5 374.5,252.5C 374.5,254.167 374.5,255.833 374.5,257.5C 353.5,257.5 332.5,257.5 311.5,257.5C 311.5,255.833 311.5,254.167 311.5,252.5C 314.167,252.5 316.833,252.5 319.5,252.5 Z"/></g>
<g><path style="opacity:1" fill="#053e4a" d="M 383.5,251.5 C 404.167,251.5 424.833,251.5 445.5,251.5C 445.5,253.5 445.5,255.5 445.5,257.5C 424.5,257.5 403.5,257.5 382.5,257.5C 382.325,255.379 382.659,253.379 383.5,251.5 Z"/></g>
<g><path style="opacity:1" fill="#063d4a" d="M 27.5,259.5 C 48.1667,259.5 68.8333,259.5 89.5,259.5C 89.5,261.5 89.5,263.5 89.5,265.5C 68.8333,265.5 48.1667,265.5 27.5,265.5C 27.5,263.5 27.5,261.5 27.5,259.5 Z"/></g>
<g><path style="opacity:1" fill="#043f50" d="M 240.5,259.5 C 261.5,259.5 282.5,259.5 303.5,259.5C 303.5,261.5 303.5,263.5 303.5,265.5C 282.5,265.5 261.5,265.5 240.5,265.5C 240.5,263.5 240.5,261.5 240.5,259.5 Z"/></g>
<g><path style="opacity:1" fill="#043d4d" d="M 175.5,259.5 C 194.5,259.5 213.5,259.5 232.5,259.5C 232.5,261.5 232.5,263.5 232.5,265.5C 213.5,265.5 194.5,265.5 175.5,265.5C 173.5,265.5 171.5,265.5 169.5,265.5C 169.5,263.5 169.5,261.5 169.5,259.5C 171.5,259.5 173.5,259.5 175.5,259.5 Z"/></g>
<g><path style="opacity:1" fill="#043d4d" d="M 311.5,259.5 C 332.5,259.5 353.5,259.5 374.5,259.5C 374.5,261.5 374.5,263.5 374.5,265.5C 353.5,265.5 332.5,265.5 311.5,265.5C 311.5,263.5 311.5,261.5 311.5,259.5 Z"/></g>
<g><path style="opacity:1" fill="#043f50" d="M 383.5,259.5 C 404.167,259.5 424.833,259.5 445.5,259.5C 445.5,261.5 445.5,263.5 445.5,265.5C 424.5,265.5 403.5,265.5 382.5,265.5C 382.325,263.379 382.659,261.379 383.5,259.5 Z"/></g>
<g><path style="opacity:1" fill="#020c10" d="M 169.5,194.5 C 169.5,195.167 169.5,195.833 169.5,196.5C 169.5,198.5 169.5,200.5 169.5,202.5C 169.5,203.167 169.5,203.833 169.5,204.5C 169.5,206.5 169.5,208.5 169.5,210.5C 169.5,211.167 169.5,211.833 169.5,212.5C 168.167,216.833 168.167,221.167 169.5,225.5C 169.5,225.833 169.5,226.167 169.5,226.5C 169.5,227.167 169.5,227.833 169.5,228.5C 169.5,230.5 169.5,232.5 169.5,234.5C 169.5,235.167 169.833,235.5 170.5,235.5C 169.699,237.042 169.366,238.708 169.5,240.5C 169.115,246.439 168.115,252.272 166.5,258C 168.34,260.826 169.006,263.993 168.5,267.5C 166.753,267.593 164.919,267.926 163,268.5C 162.814,271.036 162.314,273.369 161.5,275.5C 140.5,275.5 119.5,275.5 98.5,275.5C 98.5,274.833 98.5,274.167 98.5,273.5C 119.5,273.5 140.5,273.5 161.5,273.5C 161.739,271.533 161.406,269.699 160.5,268C 143.503,267.5 126.503,267.333 109.5,267.5C 106.5,266.833 103.5,266.167 100.5,265.5C 120.833,265.5 141.167,265.5 161.5,265.5C 161.5,263.5 161.5,261.5 161.5,259.5C 140.5,259.5 119.5,259.5 98.5,259.5C 98.5,261.5 98.5,263.5 98.5,265.5C 74.6766,266.754 51.01,266.754 27.5,265.5C 48.1667,265.5 68.8333,265.5 89.5,265.5C 89.5,263.5 89.5,261.5 89.5,259.5C 68.8333,259.5 48.1667,259.5 27.5,259.5C 27.5,258.833 27.5,258.167 27.5,257.5C 48.1667,257.5 68.8333,257.5 89.5,257.5C 89.5,255.5 89.5,253.5 89.5,251.5C 68.8066,251.213 48.1399,251.546 27.5,252.5C 28.8333,251.5 28.8333,250.5 27.5,249.5C 48.5,249.5 69.5,249.5 90.5,249.5C 90.634,247.708 90.3007,246.042 89.5,244.5C 70.3377,243.668 51.0043,243.168 31.5,243C 51.0043,242.832 70.3377,242.332 89.5,241.5C 90.4345,240.432 90.7678,239.099 90.5,237.5C 93.1667,237.5 95.8333,237.5 98.5,237.5C 98.5,238.833 98.5,240.167 98.5,241.5C 119.5,241.5 140.5,241.5 161.5,241.5C 161.747,239.142 161.081,237.142 159.5,235.5C 160.492,235.672 161.158,235.338 161.5,234.5C 161.5,232.5 161.5,230.5 161.5,228.5C 161.5,227.833 161.5,227.167 161.5,226.5C 161.5,226.167 161.5,225.833 161.5,225.5C 162.167,210.661 162.833,195.661 163.5,180.5C 165.101,179.835 166.601,179.501 168,179.5C 168.49,180.793 168.657,182.127 168.5,183.5C 166.833,183.5 165.167,183.5 163.5,183.5C 163.5,184.833 163.5,186.167 163.5,187.5C 165.167,187.5 166.833,187.5 168.5,187.5C 168.198,190.059 168.532,192.393 169.5,194.5 Z"/></g>
<g><path style="opacity:1" fill="#043d4e" d="M 100.5,265.5 C 99.8333,265.5 99.1667,265.5 98.5,265.5C 98.5,263.5 98.5,261.5 98.5,259.5C 119.5,259.5 140.5,259.5 161.5,259.5C 161.5,261.5 161.5,263.5 161.5,265.5C 141.167,265.5 120.833,265.5 100.5,265.5 Z"/></g>
<g><path style="opacity:1" fill="#06414d" d="M 98.5,252.5 C 119.167,252.5 139.833,252.5 160.5,252.5C 160.5,254.167 160.5,255.833 160.5,257.5C 139.833,257.5 119.167,257.5 98.5,257.5C 98.5,255.833 98.5,254.167 98.5,252.5 Z"/></g>
<g><path style="opacity:1" fill="#04424f" d="M 98.5,244.5 C 119.167,244.5 139.833,244.5 160.5,244.5C 160.5,246.167 160.5,247.833 160.5,249.5C 139.833,249.5 119.167,249.5 98.5,249.5C 98.5,247.833 98.5,246.167 98.5,244.5 Z"/></g>
<g><path style="opacity:1" fill="#063c4d" d="M 175.5,267.5 C 194.5,267.5 213.5,267.5 232.5,267.5C 232.5,269.5 232.5,271.5 232.5,273.5C 213.5,273.5 194.5,273.5 175.5,273.5C 173.5,273.5 171.5,273.5 169.5,273.5C 169.5,271.5 169.5,269.5 169.5,267.5C 171.5,267.5 173.5,267.5 175.5,267.5 Z"/></g>
<g><path style="opacity:1" fill="#063d50" d="M 240.5,267.5 C 261.5,267.5 282.5,267.5 303.5,267.5C 303.5,269.5 303.5,271.5 303.5,273.5C 282.5,273.5 261.5,273.5 240.5,273.5C 240.5,271.5 240.5,269.5 240.5,267.5 Z"/></g>
<g><path style="opacity:1" fill="#063d4e" d="M 311.5,267.5 C 332.5,267.5 353.5,267.5 374.5,267.5C 374.5,269.5 374.5,271.5 374.5,273.5C 353.5,273.5 332.5,273.5 311.5,273.5C 311.5,271.5 311.5,269.5 311.5,267.5 Z"/></g>
<g><path style="opacity:1" fill="#053c4e" d="M 382.5,267.5 C 403.5,267.5 424.5,267.5 445.5,267.5C 445.5,269.5 445.5,271.5 445.5,273.5C 424.831,273.667 404.164,273.5 383.5,273C 382.594,271.301 382.261,269.467 382.5,267.5 Z"/></g>
<g><path style="opacity:1" fill="#083b4d" d="M 109.5,267.5 C 126.503,267.333 143.503,267.5 160.5,268C 161.406,269.699 161.739,271.533 161.5,273.5C 140.5,273.5 119.5,273.5 98.5,273.5C 98.5,271.5 98.5,269.5 98.5,267.5C 102.167,267.5 105.833,267.5 109.5,267.5 Z"/></g>
<g><path style="opacity:1" fill="#053d4f" d="M 175.5,275.5 C 194.5,275.5 213.5,275.5 232.5,275.5C 232.739,277.467 232.406,279.301 231.5,281C 210.836,281.5 190.169,281.667 169.5,281.5C 169.5,279.833 169.5,278.167 169.5,276.5C 171.265,275.539 173.265,275.205 175.5,275.5 Z"/></g>
<g><path style="opacity:1" fill="#053d50" d="M 240.5,275.5 C 261.5,275.5 282.5,275.5 303.5,275.5C 303.5,277.5 303.5,279.5 303.5,281.5C 282.5,281.5 261.5,281.5 240.5,281.5C 240.5,279.5 240.5,277.5 240.5,275.5 Z"/></g>
<g><path style="opacity:1" fill="#053d4f" d="M 311.5,275.5 C 332.169,275.333 352.836,275.5 373.5,276C 374.406,277.699 374.739,279.533 374.5,281.5C 353.5,281.5 332.5,281.5 311.5,281.5C 311.5,279.5 311.5,277.5 311.5,275.5 Z"/></g>
<g><path style="opacity:1" fill="#063c4f" d="M 382.5,275.5 C 403.5,275.5 424.5,275.5 445.5,275.5C 445.5,277.5 445.5,279.5 445.5,281.5C 424.5,281.5 403.5,281.5 382.5,281.5C 382.5,279.5 382.5,277.5 382.5,275.5 Z"/></g>
<g><path style="opacity:1" fill="#063c4f" d="M 98.5,275.5 C 119.5,275.5 140.5,275.5 161.5,275.5C 161.5,277.5 161.5,279.5 161.5,281.5C 140.5,281.5 119.5,281.5 98.5,281.5C 98.5,279.5 98.5,277.5 98.5,275.5 Z"/></g>
<g><path style="opacity:1" fill="#042430" d="M 382.5,283.5 C 403.5,283.5 424.5,283.5 445.5,283.5C 445.739,285.467 445.406,287.301 444.5,289C 424.167,289.667 403.833,289.667 383.5,289C 382.594,287.301 382.261,285.467 382.5,283.5 Z"/></g>
<g><path style="opacity:1" fill="#03232d" d="M 98.5,283.5 C 119.5,283.5 140.5,283.5 161.5,283.5C 161.822,285.722 161.155,287.556 159.5,289C 139.169,289.5 118.836,289.667 98.5,289.5C 98.5,287.5 98.5,285.5 98.5,283.5 Z"/></g>
<g><path style="opacity:1" fill="#04222d" d="M 169.5,283.5 C 190.167,283.5 210.833,283.5 231.5,283.5C 231.5,285.5 231.5,287.5 231.5,289.5C 211.164,289.667 190.831,289.5 170.5,289C 169.594,287.301 169.261,285.467 169.5,283.5 Z"/></g>
<g><path style="opacity:1" fill="#04222c" d="M 240.5,283.5 C 261.5,283.5 282.5,283.5 303.5,283.5C 303.739,285.467 303.406,287.301 302.5,289C 281.836,289.5 261.169,289.667 240.5,289.5C 240.5,287.5 240.5,285.5 240.5,283.5 Z"/></g>
<g><path style="opacity:1" fill="#03222c" d="M 311.5,283.5 C 332.5,283.5 353.5,283.5 374.5,283.5C 374.5,285.5 374.5,287.5 374.5,289.5C 353.5,289.5 332.5,289.5 311.5,289.5C 311.5,287.5 311.5,285.5 311.5,283.5 Z"/></g>
<g><path style="opacity:1" fill="#aede1b" d="M 78.5,350.5 C 84.0606,349.802 89.2273,350.802 94,353.5C 95.0192,360.812 92.5192,362.312 86.5,358C 77.6385,356.837 74.9719,360.171 78.5,368C 82.6149,370.448 86.4482,373.281 90,376.5C 93.2162,385.853 90.3829,392.686 81.5,397C 74.4007,399.384 67.5674,398.884 61,395.5C 60.1048,392.534 60.6048,389.867 62.5,387.5C 67.4168,391.464 72.7502,392.297 78.5,390C 81.0965,387.683 81.9299,384.85 81,381.5C 76.7171,378.885 72.7171,375.885 69,372.5C 64.627,364.658 66.127,358.158 73.5,353C 75.3146,352.243 76.9812,351.41 78.5,350.5 Z"/></g>
<g><path style="opacity:1" fill="#aede1b" d="M 367.5,350.5 C 373.061,349.802 378.227,350.802 383,353.5C 384.019,360.812 381.519,362.312 375.5,358C 366.639,356.837 363.972,360.171 367.5,368C 371.615,370.448 375.448,373.281 379,376.5C 382.216,385.853 379.383,392.686 370.5,397C 363.401,399.384 356.567,398.884 350,395.5C 349.105,392.534 349.605,389.867 351.5,387.5C 356.417,391.464 361.75,392.297 367.5,390C 370.097,387.683 370.93,384.85 370,381.5C 365.717,378.885 361.717,375.885 358,372.5C 353.627,364.658 355.127,358.158 362.5,353C 364.315,352.243 365.981,351.41 367.5,350.5 Z"/></g>
<g><path style="opacity:1" fill="#adde1c" d="M 315.5,351.5 C 323.571,351.137 331.571,351.637 339.5,353C 343.275,354.442 346.108,356.942 348,360.5C 350.38,390.443 336.714,402.443 307,396.5C 308.755,381.307 311.588,366.307 315.5,351.5 Z"/></g>
<g><path style="opacity:1" fill="#afe11c" d="M 395.5,351.5 C 401.842,351.334 408.175,351.5 414.5,352C 421.974,355.12 424.474,360.62 422,368.5C 419.737,375.097 415.237,379.264 408.5,381C 404.789,381.175 401.122,381.675 397.5,382.5C 396.295,387.324 395.295,392.157 394.5,397C 391.518,397.498 388.518,397.665 385.5,397.5C 387.89,384.159 390.39,370.825 393,357.5C 393.236,355.189 394.069,353.189 395.5,351.5 Z"/></g>
<g><path style="opacity:1" fill="#0b0601" d="M 322.5,358.5 C 336.258,356.994 341.425,362.994 338,376.5C 335.224,386.979 328.391,391.646 317.5,390.5C 318.907,379.796 320.574,369.129 322.5,358.5 Z"/></g>
<g><path style="opacity:1" fill="#0d0902" d="M 402.5,358.5 C 410.348,356.963 413.515,359.963 412,367.5C 409.898,373.305 405.731,375.639 399.5,374.5C 399.734,368.998 400.734,363.664 402.5,358.5 Z"/></g>
<g><path style="opacity:1" fill="#adde1c" d="M 109.5,362.5 C 114.677,361.703 119.177,363.036 123,366.5C 123.374,365.584 123.874,364.75 124.5,364C 126.81,363.503 129.143,363.337 131.5,363.5C 128.401,378.826 125.235,394.16 122,409.5C 119.281,410.444 116.448,410.777 113.5,410.5C 114.669,405.157 115.502,399.824 116,394.5C 108.791,400.466 102.458,399.8 97,392.5C 94.6842,379.573 98.8509,369.573 109.5,362.5 Z"/></g>
<g><path style="opacity:1" fill="#aede1b" d="M 186.5,362.5 C 191.742,362.023 196.742,362.856 201.5,365C 205.779,370.033 205.446,374.7 200.5,379C 194.554,382.082 188.221,383.249 181.5,382.5C 180.876,386.013 181.876,388.847 184.5,391C 189.61,391.57 194.61,391.07 199.5,389.5C 199.335,391.827 198.669,393.993 197.5,396C 175.963,402.463 168.463,394.963 175,373.5C 177.92,368.806 181.753,365.139 186.5,362.5 Z"/></g>
<g><path style="opacity:1" fill="#aede1b" d="M 221.5,362.5 C 226.742,362.023 231.742,362.856 236.5,365C 240.779,370.033 240.446,374.7 235.5,379C 229.554,382.082 223.221,383.249 216.5,382.5C 215.876,386.013 216.876,388.847 219.5,391C 224.61,391.57 229.61,391.07 234.5,389.5C 234.335,391.827 233.669,393.993 232.5,396C 210.963,402.463 203.463,394.963 210,373.5C 212.92,368.806 216.753,365.139 221.5,362.5 Z"/></g>
<g><path style="opacity:1" fill="#aede1b" d="M 285.5,362.5 C 290.742,362.023 295.742,362.856 300.5,365C 304.779,370.033 304.446,374.7 299.5,379C 293.554,382.082 287.221,383.249 280.5,382.5C 279.876,386.013 280.876,388.847 283.5,391C 288.61,391.57 293.61,391.07 298.5,389.5C 298.335,391.827 297.669,393.993 296.5,396C 274.963,402.463 267.463,394.963 274,373.5C 276.92,368.806 280.753,365.139 285.5,362.5 Z"/></g>
<g><path style="opacity:1" fill="#addd1b" d="M 140.5,363.5 C 143.167,363.5 145.833,363.5 148.5,363.5C 147.437,370.317 146.437,377.15 145.5,384C 144.367,389.881 146.367,391.548 151.5,389C 153.378,387.457 154.878,385.624 156,383.5C 158.456,377.056 159.956,370.39 160.5,363.5C 163.5,363.5 166.5,363.5 169.5,363.5C 167.656,374.552 165.49,385.552 163,396.5C 160.619,397.435 158.119,397.768 155.5,397.5C 155.657,396.127 155.49,394.793 155,393.5C 150.267,398.366 144.767,399.532 138.5,397C 137.299,396.097 136.465,394.931 136,393.5C 135.883,383.255 137.383,373.255 140.5,363.5 Z"/></g>
<g><path style="opacity:1" fill="#b0e01c" d="M 247.5,363.5 C 254.833,363.5 262.167,363.5 269.5,363.5C 269.54,366.425 268.707,369.091 267,371.5C 262.356,377.645 257.523,383.645 252.5,389.5C 256.445,390.491 260.445,390.824 264.5,390.5C 264.326,392.861 263.993,395.194 263.5,397.5C 255.833,397.5 248.167,397.5 240.5,397.5C 240.248,394.68 240.748,392.014 242,389.5C 247.048,383.241 252.214,377.074 257.5,371C 253.514,370.501 249.514,370.334 245.5,370.5C 245.394,367.921 246.061,365.588 247.5,363.5 Z"/></g>
<g><path style="opacity:1" fill="#100b02" d="M 188.5,368.5 C 193.006,367.527 195.172,369.194 195,373.5C 191.623,376.013 187.79,377.013 183.5,376.5C 183.667,372.821 185.334,370.154 188.5,368.5 Z"/></g>
<g><path style="opacity:1" fill="#100b02" d="M 223.5,368.5 C 228.006,367.527 230.172,369.194 230,373.5C 226.623,376.013 222.79,377.013 218.5,376.5C 218.667,372.821 220.334,370.154 223.5,368.5 Z"/></g>
<g><path style="opacity:1" fill="#100b02" d="M 287.5,368.5 C 292.006,367.527 294.172,369.194 294,373.5C 290.623,376.013 286.79,377.013 282.5,376.5C 282.667,372.821 284.334,370.154 287.5,368.5 Z"/></g>
<g><path style="opacity:1" fill="#080701" d="M 112.5,369.5 C 117.034,369.093 119.701,371.093 120.5,375.5C 119.493,379.688 117.993,383.688 116,387.5C 113.653,390.856 110.653,391.856 107,390.5C 104.974,382.308 106.808,375.308 112.5,369.5 Z"/></g>
</svg>
