<?xml version="1.0" encoding="UTF-8"?>
<!DOCTYPE svg PUBLIC "-//W3C//DTD SVG 1.1//EN" "http://www.w3.org/Graphics/SVG/1.1/DTD/svg11.dtd">
<svg xmlns="http://www.w3.org/2000/svg" version="1.1" width="512px" height="512px" style="shape-rendering:geometricPrecision; text-rendering:geometricPrecision; image-rendering:optimizeQuality; fill-rule:evenodd; clip-rule:evenodd" xmlns:xlink="http://www.w3.org/1999/xlink">
<g><path style="opacity:1" fill="#000" d="M 61.5,-0.5 C 190.833,-0.5 320.167,-0.5 449.5,-0.5C 482.5,7.83333 503.167,28.5 511.5,61.5C 511.5,190.833 511.5,320.167 511.5,449.5C 503.167,482.5 482.5,503.167 449.5,511.5C 320.167,511.5 190.833,511.5 61.5,511.5C 28.5,503.167 7.83333,482.5 -0.5,449.5C -0.5,320.167 -0.5,190.833 -0.5,61.5C 7.83333,28.5 28.5,7.83333 61.5,-0.5 Z M 67.5,21.5 C 192.834,21.3333 318.167,21.5 443.5,22C 469.333,26.5 484.5,41.6667 489,67.5C 489.667,192.833 489.667,318.167 489,443.5C 484.5,469.333 469.333,484.5 443.5,489C 318.167,489.667 192.833,489.667 67.5,489C 41.6667,484.5 26.5,469.333 22,443.5C 21.3333,318.167 21.3333,192.833 22,67.5C 26.6795,41.6544 41.8461,26.3211 67.5,21.5 Z"/></g>
<g><path style="opacity:1" fill="#000" d="M 91.5,52.5 C 98.1276,51.231 102.961,53.5644 106,59.5C 106.333,78.8333 106.667,98.1667 107,117.5C 131.586,127.334 141.586,145.334 137,171.5C 132,186.5 122,196.5 107,201.5C 106.667,284.833 106.333,368.167 106,451.5C 102.23,458.414 96.7303,460.247 89.5,457C 87.6217,455.457 86.1217,453.624 85,451.5C 84.6667,368.167 84.3333,284.833 84,201.5C 59.4141,191.666 49.4141,173.666 54,147.5C 59,132.5 69,122.5 84,117.5C 84.3333,98.1667 84.6667,78.8333 85,59.5C 86.6941,56.6424 88.8607,54.309 91.5,52.5 Z"/></g>
<g><path style="opacity:1" fill="#000" d="M 240.5,52.5 C 248.834,51.2353 254.001,54.5686 256,62.5C 256.167,137.836 256.667,213.169 257.5,288.5C 282.989,299.311 292.322,318.145 285.5,345C 280.023,358.407 270.356,367.241 256.5,371.5C 256.667,397.169 256.5,422.835 256,448.5C 253.343,457.578 247.51,460.411 238.5,457C 236.383,455.269 234.883,453.102 234,450.5C 233.5,424.169 233.333,397.835 233.5,371.5C 220.233,368.073 210.733,360.073 205,347.5C 196.915,319.674 206.082,300.008 232.5,288.5C 233.333,212.502 233.833,136.502 234,60.5C 235.305,57.0386 237.471,54.372 240.5,52.5 Z"/></g>
<g><path style="opacity:1" fill="#000" d="M 390.5,52.5 C 397.617,51.1401 402.451,53.8068 405,60.5C 405.333,100.833 405.667,141.167 406,181.5C 432.831,192.829 442.164,212.495 434,240.5C 428.124,252.71 418.791,261.043 406,265.5C 405.667,327.167 405.333,388.833 405,450.5C 400.909,458.879 394.742,460.712 386.5,456C 384.898,454.065 383.731,451.899 383,449.5C 382.667,388.167 382.333,326.833 382,265.5C 356.022,254.211 346.689,234.877 354,207.5C 359.486,194.68 368.819,186.014 382,181.5C 382.333,141.833 382.667,102.167 383,62.5C 383.831,57.8085 386.331,54.4752 390.5,52.5 Z"/></g>
<g><path style="opacity:1" fill="#3f47cc" d="M 88.5,139.5 C 108.739,137.571 117.573,146.571 115,166.5C 109.657,177.752 100.824,181.919 88.5,179C 77.1963,173.558 73.0296,164.725 76,152.5C 78.3531,146.315 82.5198,141.982 88.5,139.5 Z"/></g>
<g><path style="opacity:1" fill="#3f47cc" d="M 387.5,203.5 C 408.98,201.812 417.48,211.478 413,232.5C 406.309,243.434 396.809,246.6 384.5,242C 374.594,235.616 371.427,226.783 375,215.5C 377.769,209.895 381.936,205.895 387.5,203.5 Z"/></g>
<g><path style="opacity:1" fill="#3f47cc" d="M 240.5,309.5 C 257.98,308.813 266.147,317.146 265,334.5C 260.907,347.471 252.074,352.638 238.5,350C 224.01,342.829 220.51,331.996 228,317.5C 231.579,313.724 235.746,311.057 240.5,309.5 Z"/></g>
</svg>
